ISO-10303-21;
HEADER;
/* Generated by software containing ST-Developer
 * from STEP Tools, Inc. (www.steptools.com) 
 */

FILE_DESCRIPTION(
/* description */ (''),
/* implementation_level */ '2;1');

FILE_NAME(
/* name */ 'macropad-stratum-bottom.step',
/* time_stamp */ '2026-07-22T16:00:50-06:00',
/* author */ (''),
/* organization */ (''),
/* preprocessor_version */ 'ST-DEVELOPER v20.1',
/* originating_system */ 'Autodesk Translation Framework v15.8.0.0',
/* authorisation */ '');

FILE_SCHEMA (('AUTOMOTIVE_DESIGN { 1 0 10303 214 3 1 1 }'));
ENDSEC;

DATA;
#10=MECHANICAL_DESIGN_GEOMETRIC_PRESENTATION_REPRESENTATION('',(#13),#1633);
#11=SHAPE_REPRESENTATION_RELATIONSHIP('SRR','None',#1640,#12);
#12=ADVANCED_BREP_SHAPE_REPRESENTATION('',(#14),#1632);
#13=STYLED_ITEM('',(#1650),#14);
#14=MANIFOLD_SOLID_BREP('Case Wall-Body',#912);
#15=FACE_BOUND('',#190,.T.);
#16=FACE_BOUND('',#194,.T.);
#17=FACE_BOUND('',#197,.T.);
#18=FACE_BOUND('',#200,.T.);
#19=FACE_BOUND('',#212,.T.);
#20=FACE_BOUND('',#213,.T.);
#21=FACE_BOUND('',#214,.T.);
#22=FACE_BOUND('',#215,.T.);
#23=CONICAL_SURFACE('',#960,5.75000000000001,0.785398163397449);
#24=CONICAL_SURFACE('',#965,5.75000000000001,0.785398163397448);
#25=CONICAL_SURFACE('',#970,5.75,0.785398163397449);
#26=CONICAL_SURFACE('',#975,5.74999999999994,0.785398163397448);
#27=CYLINDRICAL_SURFACE('',#931,1.);
#28=CYLINDRICAL_SURFACE('',#937,1.);
#29=CYLINDRICAL_SURFACE('',#943,1.);
#30=CYLINDRICAL_SURFACE('',#949,1.00000000000001);
#31=CYLINDRICAL_SURFACE('',#952,1.);
#32=CYLINDRICAL_SURFACE('',#955,1.);
#33=CYLINDRICAL_SURFACE('',#957,1.00000000000001);
#34=CYLINDRICAL_SURFACE('',#979,6.00000000000001);
#35=CYLINDRICAL_SURFACE('',#982,6.00000000000001);
#36=CYLINDRICAL_SURFACE('',#985,3.3);
#37=CYLINDRICAL_SURFACE('',#996,3.3);
#38=CYLINDRICAL_SURFACE('',#1001,3.3);
#39=CYLINDRICAL_SURFACE('',#1002,1.7);
#40=CYLINDRICAL_SURFACE('',#1006,1.7);
#41=CYLINDRICAL_SURFACE('',#1010,1.7);
#42=CYLINDRICAL_SURFACE('',#1015,3.3);
#43=CYLINDRICAL_SURFACE('',#1016,1.7);
#44=CYLINDRICAL_SURFACE('',#1023,5.99999999999994);
#45=CYLINDRICAL_SURFACE('',#1026,6.);
#46=CIRCLE('',#928,1.);
#47=CIRCLE('',#929,1.);
#48=CIRCLE('',#930,2.);
#49=CIRCLE('',#932,1.00000000000001);
#50=CIRCLE('',#934,1.);
#51=CIRCLE('',#935,2.);
#52=CIRCLE('',#936,1.);
#53=CIRCLE('',#938,1.);
#54=CIRCLE('',#940,1.);
#55=CIRCLE('',#941,2.);
#56=CIRCLE('',#942,1.00000000000001);
#57=CIRCLE('',#944,1.);
#58=CIRCLE('',#946,2.00000000000001);
#59=CIRCLE('',#947,1.00000000000001);
#60=CIRCLE('',#950,1.00000000000001);
#61=CIRCLE('',#953,1.);
#62=CIRCLE('',#956,1.);
#63=CIRCLE('',#958,1.00000000000001);
#64=CIRCLE('',#961,5.50000000000001);
#65=CIRCLE('',#962,6.00000000000001);
#66=CIRCLE('',#963,5.50000000000001);
#67=CIRCLE('',#966,5.50000000000001);
#68=CIRCLE('',#967,6.00000000000001);
#69=CIRCLE('',#968,5.50000000000001);
#70=CIRCLE('',#971,5.5);
#71=CIRCLE('',#972,6.);
#72=CIRCLE('',#973,5.5);
#73=CIRCLE('',#976,5.49999999999994);
#74=CIRCLE('',#977,5.99999999999994);
#75=CIRCLE('',#978,5.49999999999994);
#76=CIRCLE('',#980,6.00000000000001);
#77=CIRCLE('',#983,6.00000000000001);
#78=CIRCLE('',#986,3.3);
#79=CIRCLE('',#987,3.3);
#80=CIRCLE('',#988,3.3);
#81=CIRCLE('',#990,3.3);
#82=CIRCLE('',#991,3.3);
#83=CIRCLE('',#992,3.3);
#84=CIRCLE('',#993,3.3);
#85=CIRCLE('',#994,3.3);
#86=CIRCLE('',#995,3.3);
#87=CIRCLE('',#997,3.3);
#88=CIRCLE('',#999,3.3);
#89=CIRCLE('',#1000,1.7);
#90=CIRCLE('',#1003,1.7);
#91=CIRCLE('',#1005,1.7);
#92=CIRCLE('',#1007,1.7);
#93=CIRCLE('',#1009,1.7);
#94=CIRCLE('',#1011,1.7);
#95=CIRCLE('',#1013,3.3);
#96=CIRCLE('',#1014,1.7);
#97=CIRCLE('',#1017,1.7);
#98=CIRCLE('',#1024,5.99999999999994);
#99=CIRCLE('',#1027,6.);
#100=B_SPLINE_CURVE_WITH_KNOTS('',3,(#1322,#1323,#1324,#1325,#1326,#1327,
#1328,#1329,#1330,#1331),.UNSPECIFIED.,.F.,.F.,(4,2,2,2,4),(0.148985312750033,
0.187030877367265,0.225276946265377,0.262969383335411,0.299409354600897),
 .UNSPECIFIED.);
#101=B_SPLINE_CURVE_WITH_KNOTS('',3,(#1370,#1371,#1372,#1373,#1374,#1375,
#1376,#1377,#1378,#1379),.UNSPECIFIED.,.F.,.F.,(4,2,2,2,4),(0.299409354600897,
0.335849325866383,0.373541762936417,0.411787831834528,0.449833396451761),
 .UNSPECIFIED.);
#102=B_SPLINE_CURVE_WITH_KNOTS('',3,(#1428,#1429,#1430,#1431,#1432,#1433,
#1434,#1435,#1436,#1437),.UNSPECIFIED.,.F.,.F.,(4,2,2,2,4),(0.244440994458799,
0.336868236550764,0.443636168615446,0.550404098397845,0.64283245989085),
 .UNSPECIFIED.);
#103=B_SPLINE_CURVE_WITH_KNOTS('',3,(#1453,#1454,#1455,#1456,#1457,#1458,
#1459,#1460,#1461,#1462),.UNSPECIFIED.,.F.,.F.,(4,2,2,2,4),(0.244441231459151,
0.336867956474785,0.443635828298163,0.550403699895729,0.642830448610363),
 .UNSPECIFIED.);
#104=B_SPLINE_CURVE_WITH_KNOTS('',3,(#1478,#1479,#1480,#1481,#1482,#1483,
#1484,#1485,#1486,#1487),.UNSPECIFIED.,.F.,.F.,(4,2,2,2,4),(0.244442140424026,
0.336867804859889,0.443635640186126,0.550403468710937,0.642829846960436),
 .UNSPECIFIED.);
#105=B_SPLINE_CURVE_WITH_KNOTS('',3,(#1503,#1504,#1505,#1506,#1507,#1508,
#1509,#1510,#1511,#1512),.UNSPECIFIED.,.F.,.F.,(4,2,2,2,4),(0.244441991130557,
0.336867674888623,0.443635482718403,0.550403292106276,0.642828812341347),
 .UNSPECIFIED.);
#106=TOROIDAL_SURFACE('',#927,2.,1.);
#107=TOROIDAL_SURFACE('',#933,2.,1.);
#108=TOROIDAL_SURFACE('',#939,2.00000000000001,1.);
#109=TOROIDAL_SURFACE('',#945,2.00000000000001,1.);
#110=FACE_OUTER_BOUND('',#159,.T.);
#111=FACE_OUTER_BOUND('',#160,.T.);
#112=FACE_OUTER_BOUND('',#161,.T.);
#113=FACE_OUTER_BOUND('',#162,.T.);
#114=FACE_OUTER_BOUND('',#163,.T.);
#115=FACE_OUTER_BOUND('',#164,.T.);
#116=FACE_OUTER_BOUND('',#165,.T.);
#117=FACE_OUTER_BOUND('',#166,.T.);
#118=FACE_OUTER_BOUND('',#167,.T.);
#119=FACE_OUTER_BOUND('',#168,.T.);
#120=FACE_OUTER_BOUND('',#169,.T.);
#121=FACE_OUTER_BOUND('',#170,.T.);
#122=FACE_OUTER_BOUND('',#171,.T.);
#123=FACE_OUTER_BOUND('',#172,.T.);
#124=FACE_OUTER_BOUND('',#173,.T.);
#125=FACE_OUTER_BOUND('',#174,.T.);
#126=FACE_OUTER_BOUND('',#175,.T.);
#127=FACE_OUTER_BOUND('',#176,.T.);
#128=FACE_OUTER_BOUND('',#177,.T.);
#129=FACE_OUTER_BOUND('',#178,.T.);
#130=FACE_OUTER_BOUND('',#179,.T.);
#131=FACE_OUTER_BOUND('',#180,.T.);
#132=FACE_OUTER_BOUND('',#181,.T.);
#133=FACE_OUTER_BOUND('',#182,.T.);
#134=FACE_OUTER_BOUND('',#183,.T.);
#135=FACE_OUTER_BOUND('',#184,.T.);
#136=FACE_OUTER_BOUND('',#185,.T.);
#137=FACE_OUTER_BOUND('',#186,.T.);
#138=FACE_OUTER_BOUND('',#187,.T.);
#139=FACE_OUTER_BOUND('',#188,.T.);
#140=FACE_OUTER_BOUND('',#189,.T.);
#141=FACE_OUTER_BOUND('',#191,.T.);
#142=FACE_OUTER_BOUND('',#192,.T.);
#143=FACE_OUTER_BOUND('',#193,.T.);
#144=FACE_OUTER_BOUND('',#195,.T.);
#145=FACE_OUTER_BOUND('',#196,.T.);
#146=FACE_OUTER_BOUND('',#198,.T.);
#147=FACE_OUTER_BOUND('',#199,.T.);
#148=FACE_OUTER_BOUND('',#201,.T.);
#149=FACE_OUTER_BOUND('',#202,.T.);
#150=FACE_OUTER_BOUND('',#203,.T.);
#151=FACE_OUTER_BOUND('',#204,.T.);
#152=FACE_OUTER_BOUND('',#205,.T.);
#153=FACE_OUTER_BOUND('',#206,.T.);
#154=FACE_OUTER_BOUND('',#207,.T.);
#155=FACE_OUTER_BOUND('',#208,.T.);
#156=FACE_OUTER_BOUND('',#209,.T.);
#157=FACE_OUTER_BOUND('',#210,.T.);
#158=FACE_OUTER_BOUND('',#211,.T.);
#159=EDGE_LOOP('',(#577,#578,#579,#580));
#160=EDGE_LOOP('',(#581,#582,#583,#584));
#161=EDGE_LOOP('',(#585,#586,#587,#588));
#162=EDGE_LOOP('',(#589,#590,#591,#592));
#163=EDGE_LOOP('',(#593,#594,#595,#596));
#164=EDGE_LOOP('',(#597,#598,#599,#600));
#165=EDGE_LOOP('',(#601,#602,#603,#604));
#166=EDGE_LOOP('',(#605,#606,#607,#608));
#167=EDGE_LOOP('',(#609,#610,#611,#612,#613));
#168=EDGE_LOOP('',(#614,#615,#616,#617));
#169=EDGE_LOOP('',(#618,#619,#620,#621));
#170=EDGE_LOOP('',(#622,#623,#624,#625));
#171=EDGE_LOOP('',(#626,#627,#628,#629,#630));
#172=EDGE_LOOP('',(#631,#632,#633,#634));
#173=EDGE_LOOP('',(#635,#636,#637,#638));
#174=EDGE_LOOP('',(#639,#640,#641,#642));
#175=EDGE_LOOP('',(#643,#644,#645,#646,#647,#648));
#176=EDGE_LOOP('',(#649,#650,#651,#652));
#177=EDGE_LOOP('',(#653,#654,#655,#656,#657,#658));
#178=EDGE_LOOP('',(#659,#660,#661,#662));
#179=EDGE_LOOP('',(#663,#664,#665,#666,#667,#668));
#180=EDGE_LOOP('',(#669,#670,#671,#672));
#181=EDGE_LOOP('',(#673,#674,#675,#676,#677,#678));
#182=EDGE_LOOP('',(#679,#680,#681,#682));
#183=EDGE_LOOP('',(#683,#684,#685,#686));
#184=EDGE_LOOP('',(#687,#688,#689,#690));
#185=EDGE_LOOP('',(#691,#692,#693,#694));
#186=EDGE_LOOP('',(#695,#696,#697,#698,#699,#700));
#187=EDGE_LOOP('',(#701,#702,#703,#704,#705,#706,#707,#708,#709,#710,#711,
#712,#713,#714,#715,#716,#717,#718,#719,#720));
#188=EDGE_LOOP('',(#721,#722,#723,#724,#725,#726));
#189=EDGE_LOOP('',(#727));
#190=EDGE_LOOP('',(#728));
#191=EDGE_LOOP('',(#729,#730,#731,#732,#733,#734));
#192=EDGE_LOOP('',(#735,#736,#737,#738));
#193=EDGE_LOOP('',(#739));
#194=EDGE_LOOP('',(#740));
#195=EDGE_LOOP('',(#741,#742,#743,#744));
#196=EDGE_LOOP('',(#745));
#197=EDGE_LOOP('',(#746));
#198=EDGE_LOOP('',(#747,#748,#749,#750));
#199=EDGE_LOOP('',(#751));
#200=EDGE_LOOP('',(#752));
#201=EDGE_LOOP('',(#753,#754,#755,#756,#757,#758));
#202=EDGE_LOOP('',(#759,#760,#761,#762));
#203=EDGE_LOOP('',(#763,#764,#765,#766,#767,#768,#769,#770,#771,#772,#773,
#774,#775,#776,#777,#778));
#204=EDGE_LOOP('',(#779,#780,#781,#782,#783));
#205=EDGE_LOOP('',(#784,#785,#786,#787,#788));
#206=EDGE_LOOP('',(#789,#790,#791,#792,#793,#794));
#207=EDGE_LOOP('',(#795,#796,#797,#798,#799,#800,#801,#802,#803,#804,#805,
#806));
#208=EDGE_LOOP('',(#807,#808,#809,#810));
#209=EDGE_LOOP('',(#811,#812,#813,#814));
#210=EDGE_LOOP('',(#815,#816,#817,#818));
#211=EDGE_LOOP('',(#819,#820,#821,#822,#823,#824,#825,#826,#827,#828,#829,
#830,#831,#832,#833,#834,#835,#836));
#212=EDGE_LOOP('',(#837));
#213=EDGE_LOOP('',(#838));
#214=EDGE_LOOP('',(#839));
#215=EDGE_LOOP('',(#840));
#216=LINE('',#1313,#288);
#217=LINE('',#1315,#289);
#218=LINE('',#1317,#290);
#219=LINE('',#1318,#291);
#220=LINE('',#1341,#292);
#221=LINE('',#1342,#293);
#222=LINE('',#1353,#294);
#223=LINE('',#1354,#295);
#224=LINE('',#1365,#296);
#225=LINE('',#1366,#297);
#226=LINE('',#1385,#298);
#227=LINE('',#1387,#299);
#228=LINE('',#1388,#300);
#229=LINE('',#1389,#301);
#230=LINE('',#1393,#302);
#231=LINE('',#1396,#303);
#232=LINE('',#1397,#304);
#233=LINE('',#1401,#305);
#234=LINE('',#1404,#306);
#235=LINE('',#1406,#307);
#236=LINE('',#1407,#308);
#237=LINE('',#1410,#309);
#238=LINE('',#1415,#310);
#239=LINE('',#1419,#311);
#240=LINE('',#1421,#312);
#241=LINE('',#1423,#313);
#242=LINE('',#1424,#314);
#243=LINE('',#1442,#315);
#244=LINE('',#1447,#316);
#245=LINE('',#1448,#317);
#246=LINE('',#1449,#318);
#247=LINE('',#1467,#319);
#248=LINE('',#1471,#320);
#249=LINE('',#1473,#321);
#250=LINE('',#1474,#322);
#251=LINE('',#1492,#323);
#252=LINE('',#1497,#324);
#253=LINE('',#1498,#325);
#254=LINE('',#1499,#326);
#255=LINE('',#1518,#327);
#256=LINE('',#1521,#328);
#257=LINE('',#1524,#329);
#258=LINE('',#1525,#330);
#259=LINE('',#1528,#331);
#260=LINE('',#1532,#332);
#261=LINE('',#1533,#333);
#262=LINE('',#1538,#334);
#263=LINE('',#1553,#335);
#264=LINE('',#1561,#336);
#265=LINE('',#1564,#337);
#266=LINE('',#1571,#338);
#267=LINE('',#1578,#339);
#268=LINE('',#1586,#340);
#269=LINE('',#1589,#341);
#270=LINE('',#1593,#342);
#271=LINE('',#1595,#343);
#272=LINE('',#1596,#344);
#273=LINE('',#1598,#345);
#274=LINE('',#1600,#346);
#275=LINE('',#1601,#347);
#276=LINE('',#1604,#348);
#277=LINE('',#1605,#349);
#278=LINE('',#1608,#350);
#279=LINE('',#1610,#351);
#280=LINE('',#1611,#352);
#281=LINE('',#1613,#353);
#282=LINE('',#1616,#354);
#283=LINE('',#1617,#355);
#284=LINE('',#1619,#356);
#285=LINE('',#1620,#357);
#286=LINE('',#1625,#358);
#287=LINE('',#1626,#359);
#288=VECTOR('',#1033,10.);
#289=VECTOR('',#1034,10.);
#290=VECTOR('',#1035,10.);
#291=VECTOR('',#1036,10.);
#292=VECTOR('',#1049,10.);
#293=VECTOR('',#1050,10.);
#294=VECTOR('',#1063,10.);
#295=VECTOR('',#1064,10.);
#296=VECTOR('',#1077,10.);
#297=VECTOR('',#1078,10.);
#298=VECTOR('',#1087,10.);
#299=VECTOR('',#1088,10.);
#300=VECTOR('',#1089,10.);
#301=VECTOR('',#1090,10.);
#302=VECTOR('',#1095,10.);
#303=VECTOR('',#1098,10.);
#304=VECTOR('',#1099,10.);
#305=VECTOR('',#1104,10.);
#306=VECTOR('',#1107,10.);
#307=VECTOR('',#1108,10.);
#308=VECTOR('',#1109,10.);
#309=VECTOR('',#1112,10.);
#310=VECTOR('',#1119,10.);
#311=VECTOR('',#1122,10.);
#312=VECTOR('',#1123,10.);
#313=VECTOR('',#1124,10.);
#314=VECTOR('',#1125,10.);
#315=VECTOR('',#1132,10.);
#316=VECTOR('',#1137,10.);
#317=VECTOR('',#1138,10.);
#318=VECTOR('',#1139,10.);
#319=VECTOR('',#1146,10.);
#320=VECTOR('',#1151,10.);
#321=VECTOR('',#1152,10.);
#322=VECTOR('',#1153,10.);
#323=VECTOR('',#1160,10.);
#324=VECTOR('',#1165,10.);
#325=VECTOR('',#1166,10.);
#326=VECTOR('',#1167,10.);
#327=VECTOR('',#1178,10.);
#328=VECTOR('',#1181,10.);
#329=VECTOR('',#1184,10.);
#330=VECTOR('',#1185,10.);
#331=VECTOR('',#1188,10.);
#332=VECTOR('',#1193,10.);
#333=VECTOR('',#1194,10.);
#334=VECTOR('',#1199,3.3);
#335=VECTOR('',#1220,3.3);
#336=VECTOR('',#1231,3.3);
#337=VECTOR('',#1234,1.7);
#338=VECTOR('',#1243,1.7);
#339=VECTOR('',#1252,1.7);
#340=VECTOR('',#1263,3.3);
#341=VECTOR('',#1266,1.7);
#342=VECTOR('',#1271,10.);
#343=VECTOR('',#1272,10.);
#344=VECTOR('',#1273,10.);
#345=VECTOR('',#1274,10.);
#346=VECTOR('',#1275,10.);
#347=VECTOR('',#1276,10.);
#348=VECTOR('',#1279,10.);
#349=VECTOR('',#1280,10.);
#350=VECTOR('',#1283,10.);
#351=VECTOR('',#1284,10.);
#352=VECTOR('',#1285,10.);
#353=VECTOR('',#1288,10.);
#354=VECTOR('',#1291,10.);
#355=VECTOR('',#1292,10.);
#356=VECTOR('',#1293,10.);
#357=VECTOR('',#1294,10.);
#358=VECTOR('',#1301,10.);
#359=VECTOR('',#1302,10.);
#360=VERTEX_POINT('',#1311);
#361=VERTEX_POINT('',#1312);
#362=VERTEX_POINT('',#1314);
#363=VERTEX_POINT('',#1316);
#364=VERTEX_POINT('',#1320);
#365=VERTEX_POINT('',#1321);
#366=VERTEX_POINT('',#1332);
#367=VERTEX_POINT('',#1334);
#368=VERTEX_POINT('',#1338);
#369=VERTEX_POINT('',#1339);
#370=VERTEX_POINT('',#1344);
#371=VERTEX_POINT('',#1345);
#372=VERTEX_POINT('',#1350);
#373=VERTEX_POINT('',#1351);
#374=VERTEX_POINT('',#1356);
#375=VERTEX_POINT('',#1357);
#376=VERTEX_POINT('',#1362);
#377=VERTEX_POINT('',#1363);
#378=VERTEX_POINT('',#1368);
#379=VERTEX_POINT('',#1369);
#380=VERTEX_POINT('',#1383);
#381=VERTEX_POINT('',#1384);
#382=VERTEX_POINT('',#1386);
#383=VERTEX_POINT('',#1391);
#384=VERTEX_POINT('',#1395);
#385=VERTEX_POINT('',#1399);
#386=VERTEX_POINT('',#1403);
#387=VERTEX_POINT('',#1405);
#388=VERTEX_POINT('',#1409);
#389=VERTEX_POINT('',#1413);
#390=VERTEX_POINT('',#1417);
#391=VERTEX_POINT('',#1418);
#392=VERTEX_POINT('',#1420);
#393=VERTEX_POINT('',#1422);
#394=VERTEX_POINT('',#1426);
#395=VERTEX_POINT('',#1427);
#396=VERTEX_POINT('',#1439);
#397=VERTEX_POINT('',#1441);
#398=VERTEX_POINT('',#1445);
#399=VERTEX_POINT('',#1446);
#400=VERTEX_POINT('',#1451);
#401=VERTEX_POINT('',#1452);
#402=VERTEX_POINT('',#1464);
#403=VERTEX_POINT('',#1466);
#404=VERTEX_POINT('',#1470);
#405=VERTEX_POINT('',#1472);
#406=VERTEX_POINT('',#1476);
#407=VERTEX_POINT('',#1477);
#408=VERTEX_POINT('',#1489);
#409=VERTEX_POINT('',#1491);
#410=VERTEX_POINT('',#1495);
#411=VERTEX_POINT('',#1496);
#412=VERTEX_POINT('',#1501);
#413=VERTEX_POINT('',#1502);
#414=VERTEX_POINT('',#1517);
#415=VERTEX_POINT('',#1519);
#416=VERTEX_POINT('',#1523);
#417=VERTEX_POINT('',#1527);
#418=VERTEX_POINT('',#1531);
#419=VERTEX_POINT('',#1535);
#420=VERTEX_POINT('',#1537);
#421=VERTEX_POINT('',#1542);
#422=VERTEX_POINT('',#1545);
#423=VERTEX_POINT('',#1548);
#424=VERTEX_POINT('',#1552);
#425=VERTEX_POINT('',#1556);
#426=VERTEX_POINT('',#1558);
#427=VERTEX_POINT('',#1563);
#428=VERTEX_POINT('',#1567);
#429=VERTEX_POINT('',#1570);
#430=VERTEX_POINT('',#1574);
#431=VERTEX_POINT('',#1577);
#432=VERTEX_POINT('',#1581);
#433=VERTEX_POINT('',#1583);
#434=VERTEX_POINT('',#1588);
#435=VERTEX_POINT('',#1592);
#436=VERTEX_POINT('',#1594);
#437=VERTEX_POINT('',#1597);
#438=VERTEX_POINT('',#1599);
#439=VERTEX_POINT('',#1603);
#440=VERTEX_POINT('',#1607);
#441=VERTEX_POINT('',#1609);
#442=VERTEX_POINT('',#1615);
#443=VERTEX_POINT('',#1618);
#444=VERTEX_POINT('',#1624);
#445=EDGE_CURVE('',#360,#361,#216,.T.);
#446=EDGE_CURVE('',#362,#360,#217,.T.);
#447=EDGE_CURVE('',#363,#362,#218,.T.);
#448=EDGE_CURVE('',#361,#363,#219,.T.);
#449=EDGE_CURVE('',#364,#365,#100,.T.);
#450=EDGE_CURVE('',#365,#366,#46,.T.);
#451=EDGE_CURVE('',#366,#367,#47,.T.);
#452=EDGE_CURVE('',#367,#364,#48,.T.);
#453=EDGE_CURVE('',#368,#369,#49,.T.);
#454=EDGE_CURVE('',#369,#367,#220,.T.);
#455=EDGE_CURVE('',#366,#368,#221,.T.);
#456=EDGE_CURVE('',#370,#371,#50,.T.);
#457=EDGE_CURVE('',#371,#369,#51,.T.);
#458=EDGE_CURVE('',#368,#370,#52,.T.);
#459=EDGE_CURVE('',#372,#373,#53,.T.);
#460=EDGE_CURVE('',#373,#371,#222,.T.);
#461=EDGE_CURVE('',#370,#372,#223,.T.);
#462=EDGE_CURVE('',#374,#375,#54,.T.);
#463=EDGE_CURVE('',#375,#373,#55,.T.);
#464=EDGE_CURVE('',#372,#374,#56,.T.);
#465=EDGE_CURVE('',#376,#377,#57,.T.);
#466=EDGE_CURVE('',#377,#375,#224,.T.);
#467=EDGE_CURVE('',#374,#376,#225,.T.);
#468=EDGE_CURVE('',#378,#379,#101,.T.);
#469=EDGE_CURVE('',#379,#377,#58,.T.);
#470=EDGE_CURVE('',#376,#378,#59,.T.);
#471=EDGE_CURVE('',#380,#381,#226,.T.);
#472=EDGE_CURVE('',#382,#381,#227,.T.);
#473=EDGE_CURVE('',#376,#382,#228,.T.);
#474=EDGE_CURVE('',#374,#380,#229,.T.);
#475=EDGE_CURVE('',#383,#380,#60,.T.);
#476=EDGE_CURVE('',#372,#383,#230,.T.);
#477=EDGE_CURVE('',#384,#383,#231,.T.);
#478=EDGE_CURVE('',#370,#384,#232,.T.);
#479=EDGE_CURVE('',#385,#384,#61,.T.);
#480=EDGE_CURVE('',#368,#385,#233,.T.);
#481=EDGE_CURVE('',#386,#385,#234,.T.);
#482=EDGE_CURVE('',#366,#387,#235,.T.);
#483=EDGE_CURVE('',#386,#387,#236,.T.);
#484=EDGE_CURVE('',#388,#365,#237,.T.);
#485=EDGE_CURVE('',#387,#388,#62,.T.);
#486=EDGE_CURVE('',#389,#382,#63,.T.);
#487=EDGE_CURVE('',#378,#389,#238,.T.);
#488=EDGE_CURVE('',#390,#391,#239,.T.);
#489=EDGE_CURVE('',#391,#392,#240,.T.);
#490=EDGE_CURVE('',#392,#393,#241,.T.);
#491=EDGE_CURVE('',#393,#390,#242,.T.);
#492=EDGE_CURVE('',#394,#395,#102,.T.);
#493=EDGE_CURVE('',#395,#391,#64,.T.);
#494=EDGE_CURVE('',#390,#396,#65,.T.);
#495=EDGE_CURVE('',#396,#397,#243,.T.);
#496=EDGE_CURVE('',#397,#394,#66,.T.);
#497=EDGE_CURVE('',#398,#399,#244,.T.);
#498=EDGE_CURVE('',#399,#397,#245,.T.);
#499=EDGE_CURVE('',#396,#398,#246,.T.);
#500=EDGE_CURVE('',#400,#401,#103,.T.);
#501=EDGE_CURVE('',#401,#399,#67,.T.);
#502=EDGE_CURVE('',#398,#402,#68,.T.);
#503=EDGE_CURVE('',#402,#403,#247,.T.);
#504=EDGE_CURVE('',#403,#400,#69,.T.);
#505=EDGE_CURVE('',#402,#404,#248,.T.);
#506=EDGE_CURVE('',#404,#405,#249,.T.);
#507=EDGE_CURVE('',#405,#403,#250,.T.);
#508=EDGE_CURVE('',#406,#407,#104,.T.);
#509=EDGE_CURVE('',#407,#405,#70,.T.);
#510=EDGE_CURVE('',#404,#408,#71,.T.);
#511=EDGE_CURVE('',#408,#409,#251,.T.);
#512=EDGE_CURVE('',#409,#406,#72,.T.);
#513=EDGE_CURVE('',#410,#411,#252,.T.);
#514=EDGE_CURVE('',#411,#409,#253,.T.);
#515=EDGE_CURVE('',#408,#410,#254,.T.);
#516=EDGE_CURVE('',#412,#413,#105,.T.);
#517=EDGE_CURVE('',#413,#411,#73,.T.);
#518=EDGE_CURVE('',#410,#393,#74,.T.);
#519=EDGE_CURVE('',#392,#412,#75,.T.);
#520=EDGE_CURVE('',#398,#414,#255,.T.);
#521=EDGE_CURVE('',#415,#414,#76,.T.);
#522=EDGE_CURVE('',#402,#415,#256,.T.);
#523=EDGE_CURVE('',#396,#416,#257,.T.);
#524=EDGE_CURVE('',#414,#416,#258,.T.);
#525=EDGE_CURVE('',#390,#417,#259,.T.);
#526=EDGE_CURVE('',#416,#417,#77,.T.);
#527=EDGE_CURVE('',#393,#418,#260,.T.);
#528=EDGE_CURVE('',#417,#418,#261,.T.);
#529=EDGE_CURVE('',#419,#406,#78,.T.);
#530=EDGE_CURVE('',#419,#420,#262,.T.);
#531=EDGE_CURVE('',#420,#420,#79,.T.);
#532=EDGE_CURVE('',#407,#419,#80,.T.);
#533=EDGE_CURVE('',#413,#421,#81,.T.);
#534=EDGE_CURVE('',#421,#412,#82,.T.);
#535=EDGE_CURVE('',#395,#422,#83,.T.);
#536=EDGE_CURVE('',#422,#394,#84,.T.);
#537=EDGE_CURVE('',#401,#423,#85,.T.);
#538=EDGE_CURVE('',#423,#400,#86,.T.);
#539=EDGE_CURVE('',#421,#424,#263,.T.);
#540=EDGE_CURVE('',#424,#424,#87,.T.);
#541=EDGE_CURVE('',#425,#425,#88,.T.);
#542=EDGE_CURVE('',#426,#426,#89,.T.);
#543=EDGE_CURVE('',#422,#425,#264,.T.);
#544=EDGE_CURVE('',#426,#427,#265,.T.);
#545=EDGE_CURVE('',#427,#427,#90,.T.);
#546=EDGE_CURVE('',#428,#428,#91,.T.);
#547=EDGE_CURVE('',#428,#429,#266,.T.);
#548=EDGE_CURVE('',#429,#429,#92,.T.);
#549=EDGE_CURVE('',#430,#430,#93,.T.);
#550=EDGE_CURVE('',#430,#431,#267,.T.);
#551=EDGE_CURVE('',#431,#431,#94,.T.);
#552=EDGE_CURVE('',#432,#432,#95,.T.);
#553=EDGE_CURVE('',#433,#433,#96,.T.);
#554=EDGE_CURVE('',#423,#432,#268,.T.);
#555=EDGE_CURVE('',#433,#434,#269,.T.);
#556=EDGE_CURVE('',#434,#434,#97,.T.);
#557=EDGE_CURVE('',#435,#388,#270,.T.);
#558=EDGE_CURVE('',#435,#436,#271,.F.);
#559=EDGE_CURVE('',#436,#361,#272,.T.);
#560=EDGE_CURVE('',#437,#363,#273,.T.);
#561=EDGE_CURVE('',#438,#437,#274,.T.);
#562=EDGE_CURVE('',#389,#438,#275,.T.);
#563=EDGE_CURVE('',#439,#435,#276,.T.);
#564=EDGE_CURVE('',#439,#360,#277,.T.);
#565=EDGE_CURVE('',#440,#439,#278,.T.);
#566=EDGE_CURVE('',#440,#441,#279,.T.);
#567=EDGE_CURVE('',#441,#362,#280,.T.);
#568=EDGE_CURVE('',#438,#440,#281,.T.);
#569=EDGE_CURVE('',#442,#379,#282,.T.);
#570=EDGE_CURVE('',#410,#442,#283,.T.);
#571=EDGE_CURVE('',#408,#443,#284,.T.);
#572=EDGE_CURVE('',#364,#443,#285,.T.);
#573=EDGE_CURVE('',#418,#442,#98,.T.);
#574=EDGE_CURVE('',#444,#415,#286,.T.);
#575=EDGE_CURVE('',#404,#444,#287,.T.);
#576=EDGE_CURVE('',#443,#444,#99,.T.);
#577=ORIENTED_EDGE('',*,*,#445,.F.);
#578=ORIENTED_EDGE('',*,*,#446,.F.);
#579=ORIENTED_EDGE('',*,*,#447,.F.);
#580=ORIENTED_EDGE('',*,*,#448,.F.);
#581=ORIENTED_EDGE('',*,*,#449,.T.);
#582=ORIENTED_EDGE('',*,*,#450,.T.);
#583=ORIENTED_EDGE('',*,*,#451,.T.);
#584=ORIENTED_EDGE('',*,*,#452,.T.);
#585=ORIENTED_EDGE('',*,*,#453,.T.);
#586=ORIENTED_EDGE('',*,*,#454,.T.);
#587=ORIENTED_EDGE('',*,*,#451,.F.);
#588=ORIENTED_EDGE('',*,*,#455,.T.);
#589=ORIENTED_EDGE('',*,*,#456,.T.);
#590=ORIENTED_EDGE('',*,*,#457,.T.);
#591=ORIENTED_EDGE('',*,*,#453,.F.);
#592=ORIENTED_EDGE('',*,*,#458,.T.);
#593=ORIENTED_EDGE('',*,*,#459,.T.);
#594=ORIENTED_EDGE('',*,*,#460,.T.);
#595=ORIENTED_EDGE('',*,*,#456,.F.);
#596=ORIENTED_EDGE('',*,*,#461,.T.);
#597=ORIENTED_EDGE('',*,*,#462,.T.);
#598=ORIENTED_EDGE('',*,*,#463,.T.);
#599=ORIENTED_EDGE('',*,*,#459,.F.);
#600=ORIENTED_EDGE('',*,*,#464,.T.);
#601=ORIENTED_EDGE('',*,*,#465,.T.);
#602=ORIENTED_EDGE('',*,*,#466,.T.);
#603=ORIENTED_EDGE('',*,*,#462,.F.);
#604=ORIENTED_EDGE('',*,*,#467,.T.);
#605=ORIENTED_EDGE('',*,*,#468,.T.);
#606=ORIENTED_EDGE('',*,*,#469,.T.);
#607=ORIENTED_EDGE('',*,*,#465,.F.);
#608=ORIENTED_EDGE('',*,*,#470,.T.);
#609=ORIENTED_EDGE('',*,*,#471,.T.);
#610=ORIENTED_EDGE('',*,*,#472,.F.);
#611=ORIENTED_EDGE('',*,*,#473,.F.);
#612=ORIENTED_EDGE('',*,*,#467,.F.);
#613=ORIENTED_EDGE('',*,*,#474,.T.);
#614=ORIENTED_EDGE('',*,*,#475,.T.);
#615=ORIENTED_EDGE('',*,*,#474,.F.);
#616=ORIENTED_EDGE('',*,*,#464,.F.);
#617=ORIENTED_EDGE('',*,*,#476,.T.);
#618=ORIENTED_EDGE('',*,*,#477,.T.);
#619=ORIENTED_EDGE('',*,*,#476,.F.);
#620=ORIENTED_EDGE('',*,*,#461,.F.);
#621=ORIENTED_EDGE('',*,*,#478,.T.);
#622=ORIENTED_EDGE('',*,*,#479,.T.);
#623=ORIENTED_EDGE('',*,*,#478,.F.);
#624=ORIENTED_EDGE('',*,*,#458,.F.);
#625=ORIENTED_EDGE('',*,*,#480,.T.);
#626=ORIENTED_EDGE('',*,*,#481,.T.);
#627=ORIENTED_EDGE('',*,*,#480,.F.);
#628=ORIENTED_EDGE('',*,*,#455,.F.);
#629=ORIENTED_EDGE('',*,*,#482,.T.);
#630=ORIENTED_EDGE('',*,*,#483,.F.);
#631=ORIENTED_EDGE('',*,*,#450,.F.);
#632=ORIENTED_EDGE('',*,*,#484,.F.);
#633=ORIENTED_EDGE('',*,*,#485,.F.);
#634=ORIENTED_EDGE('',*,*,#482,.F.);
#635=ORIENTED_EDGE('',*,*,#470,.F.);
#636=ORIENTED_EDGE('',*,*,#473,.T.);
#637=ORIENTED_EDGE('',*,*,#486,.F.);
#638=ORIENTED_EDGE('',*,*,#487,.F.);
#639=ORIENTED_EDGE('',*,*,#488,.T.);
#640=ORIENTED_EDGE('',*,*,#489,.T.);
#641=ORIENTED_EDGE('',*,*,#490,.T.);
#642=ORIENTED_EDGE('',*,*,#491,.T.);
#643=ORIENTED_EDGE('',*,*,#492,.T.);
#644=ORIENTED_EDGE('',*,*,#493,.T.);
#645=ORIENTED_EDGE('',*,*,#488,.F.);
#646=ORIENTED_EDGE('',*,*,#494,.T.);
#647=ORIENTED_EDGE('',*,*,#495,.T.);
#648=ORIENTED_EDGE('',*,*,#496,.T.);
#649=ORIENTED_EDGE('',*,*,#497,.T.);
#650=ORIENTED_EDGE('',*,*,#498,.T.);
#651=ORIENTED_EDGE('',*,*,#495,.F.);
#652=ORIENTED_EDGE('',*,*,#499,.T.);
#653=ORIENTED_EDGE('',*,*,#500,.T.);
#654=ORIENTED_EDGE('',*,*,#501,.T.);
#655=ORIENTED_EDGE('',*,*,#497,.F.);
#656=ORIENTED_EDGE('',*,*,#502,.T.);
#657=ORIENTED_EDGE('',*,*,#503,.T.);
#658=ORIENTED_EDGE('',*,*,#504,.T.);
#659=ORIENTED_EDGE('',*,*,#503,.F.);
#660=ORIENTED_EDGE('',*,*,#505,.T.);
#661=ORIENTED_EDGE('',*,*,#506,.T.);
#662=ORIENTED_EDGE('',*,*,#507,.T.);
#663=ORIENTED_EDGE('',*,*,#508,.T.);
#664=ORIENTED_EDGE('',*,*,#509,.T.);
#665=ORIENTED_EDGE('',*,*,#506,.F.);
#666=ORIENTED_EDGE('',*,*,#510,.T.);
#667=ORIENTED_EDGE('',*,*,#511,.T.);
#668=ORIENTED_EDGE('',*,*,#512,.T.);
#669=ORIENTED_EDGE('',*,*,#513,.T.);
#670=ORIENTED_EDGE('',*,*,#514,.T.);
#671=ORIENTED_EDGE('',*,*,#511,.F.);
#672=ORIENTED_EDGE('',*,*,#515,.T.);
#673=ORIENTED_EDGE('',*,*,#516,.T.);
#674=ORIENTED_EDGE('',*,*,#517,.T.);
#675=ORIENTED_EDGE('',*,*,#513,.F.);
#676=ORIENTED_EDGE('',*,*,#518,.T.);
#677=ORIENTED_EDGE('',*,*,#490,.F.);
#678=ORIENTED_EDGE('',*,*,#519,.T.);
#679=ORIENTED_EDGE('',*,*,#502,.F.);
#680=ORIENTED_EDGE('',*,*,#520,.T.);
#681=ORIENTED_EDGE('',*,*,#521,.F.);
#682=ORIENTED_EDGE('',*,*,#522,.F.);
#683=ORIENTED_EDGE('',*,*,#499,.F.);
#684=ORIENTED_EDGE('',*,*,#523,.T.);
#685=ORIENTED_EDGE('',*,*,#524,.F.);
#686=ORIENTED_EDGE('',*,*,#520,.F.);
#687=ORIENTED_EDGE('',*,*,#494,.F.);
#688=ORIENTED_EDGE('',*,*,#525,.T.);
#689=ORIENTED_EDGE('',*,*,#526,.F.);
#690=ORIENTED_EDGE('',*,*,#523,.F.);
#691=ORIENTED_EDGE('',*,*,#491,.F.);
#692=ORIENTED_EDGE('',*,*,#527,.T.);
#693=ORIENTED_EDGE('',*,*,#528,.F.);
#694=ORIENTED_EDGE('',*,*,#525,.F.);
#695=ORIENTED_EDGE('',*,*,#508,.F.);
#696=ORIENTED_EDGE('',*,*,#529,.F.);
#697=ORIENTED_EDGE('',*,*,#530,.T.);
#698=ORIENTED_EDGE('',*,*,#531,.T.);
#699=ORIENTED_EDGE('',*,*,#530,.F.);
#700=ORIENTED_EDGE('',*,*,#532,.F.);
#701=ORIENTED_EDGE('',*,*,#504,.F.);
#702=ORIENTED_EDGE('',*,*,#507,.F.);
#703=ORIENTED_EDGE('',*,*,#509,.F.);
#704=ORIENTED_EDGE('',*,*,#532,.T.);
#705=ORIENTED_EDGE('',*,*,#529,.T.);
#706=ORIENTED_EDGE('',*,*,#512,.F.);
#707=ORIENTED_EDGE('',*,*,#514,.F.);
#708=ORIENTED_EDGE('',*,*,#517,.F.);
#709=ORIENTED_EDGE('',*,*,#533,.T.);
#710=ORIENTED_EDGE('',*,*,#534,.T.);
#711=ORIENTED_EDGE('',*,*,#519,.F.);
#712=ORIENTED_EDGE('',*,*,#489,.F.);
#713=ORIENTED_EDGE('',*,*,#493,.F.);
#714=ORIENTED_EDGE('',*,*,#535,.T.);
#715=ORIENTED_EDGE('',*,*,#536,.T.);
#716=ORIENTED_EDGE('',*,*,#496,.F.);
#717=ORIENTED_EDGE('',*,*,#498,.F.);
#718=ORIENTED_EDGE('',*,*,#501,.F.);
#719=ORIENTED_EDGE('',*,*,#537,.T.);
#720=ORIENTED_EDGE('',*,*,#538,.T.);
#721=ORIENTED_EDGE('',*,*,#516,.F.);
#722=ORIENTED_EDGE('',*,*,#534,.F.);
#723=ORIENTED_EDGE('',*,*,#539,.T.);
#724=ORIENTED_EDGE('',*,*,#540,.T.);
#725=ORIENTED_EDGE('',*,*,#539,.F.);
#726=ORIENTED_EDGE('',*,*,#533,.F.);
#727=ORIENTED_EDGE('',*,*,#541,.F.);
#728=ORIENTED_EDGE('',*,*,#542,.T.);
#729=ORIENTED_EDGE('',*,*,#492,.F.);
#730=ORIENTED_EDGE('',*,*,#536,.F.);
#731=ORIENTED_EDGE('',*,*,#543,.T.);
#732=ORIENTED_EDGE('',*,*,#541,.T.);
#733=ORIENTED_EDGE('',*,*,#543,.F.);
#734=ORIENTED_EDGE('',*,*,#535,.F.);
#735=ORIENTED_EDGE('',*,*,#542,.F.);
#736=ORIENTED_EDGE('',*,*,#544,.T.);
#737=ORIENTED_EDGE('',*,*,#545,.F.);
#738=ORIENTED_EDGE('',*,*,#544,.F.);
#739=ORIENTED_EDGE('',*,*,#531,.F.);
#740=ORIENTED_EDGE('',*,*,#546,.T.);
#741=ORIENTED_EDGE('',*,*,#546,.F.);
#742=ORIENTED_EDGE('',*,*,#547,.T.);
#743=ORIENTED_EDGE('',*,*,#548,.F.);
#744=ORIENTED_EDGE('',*,*,#547,.F.);
#745=ORIENTED_EDGE('',*,*,#540,.F.);
#746=ORIENTED_EDGE('',*,*,#549,.T.);
#747=ORIENTED_EDGE('',*,*,#549,.F.);
#748=ORIENTED_EDGE('',*,*,#550,.T.);
#749=ORIENTED_EDGE('',*,*,#551,.F.);
#750=ORIENTED_EDGE('',*,*,#550,.F.);
#751=ORIENTED_EDGE('',*,*,#552,.F.);
#752=ORIENTED_EDGE('',*,*,#553,.T.);
#753=ORIENTED_EDGE('',*,*,#500,.F.);
#754=ORIENTED_EDGE('',*,*,#538,.F.);
#755=ORIENTED_EDGE('',*,*,#554,.T.);
#756=ORIENTED_EDGE('',*,*,#552,.T.);
#757=ORIENTED_EDGE('',*,*,#554,.F.);
#758=ORIENTED_EDGE('',*,*,#537,.F.);
#759=ORIENTED_EDGE('',*,*,#553,.F.);
#760=ORIENTED_EDGE('',*,*,#555,.T.);
#761=ORIENTED_EDGE('',*,*,#556,.F.);
#762=ORIENTED_EDGE('',*,*,#555,.F.);
#763=ORIENTED_EDGE('',*,*,#472,.T.);
#764=ORIENTED_EDGE('',*,*,#471,.F.);
#765=ORIENTED_EDGE('',*,*,#475,.F.);
#766=ORIENTED_EDGE('',*,*,#477,.F.);
#767=ORIENTED_EDGE('',*,*,#479,.F.);
#768=ORIENTED_EDGE('',*,*,#481,.F.);
#769=ORIENTED_EDGE('',*,*,#483,.T.);
#770=ORIENTED_EDGE('',*,*,#485,.T.);
#771=ORIENTED_EDGE('',*,*,#557,.F.);
#772=ORIENTED_EDGE('',*,*,#558,.T.);
#773=ORIENTED_EDGE('',*,*,#559,.T.);
#774=ORIENTED_EDGE('',*,*,#448,.T.);
#775=ORIENTED_EDGE('',*,*,#560,.F.);
#776=ORIENTED_EDGE('',*,*,#561,.F.);
#777=ORIENTED_EDGE('',*,*,#562,.F.);
#778=ORIENTED_EDGE('',*,*,#486,.T.);
#779=ORIENTED_EDGE('',*,*,#558,.F.);
#780=ORIENTED_EDGE('',*,*,#563,.F.);
#781=ORIENTED_EDGE('',*,*,#564,.T.);
#782=ORIENTED_EDGE('',*,*,#445,.T.);
#783=ORIENTED_EDGE('',*,*,#559,.F.);
#784=ORIENTED_EDGE('',*,*,#564,.F.);
#785=ORIENTED_EDGE('',*,*,#565,.F.);
#786=ORIENTED_EDGE('',*,*,#566,.T.);
#787=ORIENTED_EDGE('',*,*,#567,.T.);
#788=ORIENTED_EDGE('',*,*,#446,.T.);
#789=ORIENTED_EDGE('',*,*,#566,.F.);
#790=ORIENTED_EDGE('',*,*,#568,.F.);
#791=ORIENTED_EDGE('',*,*,#561,.T.);
#792=ORIENTED_EDGE('',*,*,#560,.T.);
#793=ORIENTED_EDGE('',*,*,#447,.T.);
#794=ORIENTED_EDGE('',*,*,#567,.F.);
#795=ORIENTED_EDGE('',*,*,#469,.F.);
#796=ORIENTED_EDGE('',*,*,#569,.F.);
#797=ORIENTED_EDGE('',*,*,#570,.F.);
#798=ORIENTED_EDGE('',*,*,#515,.F.);
#799=ORIENTED_EDGE('',*,*,#571,.T.);
#800=ORIENTED_EDGE('',*,*,#572,.F.);
#801=ORIENTED_EDGE('',*,*,#452,.F.);
#802=ORIENTED_EDGE('',*,*,#454,.F.);
#803=ORIENTED_EDGE('',*,*,#457,.F.);
#804=ORIENTED_EDGE('',*,*,#460,.F.);
#805=ORIENTED_EDGE('',*,*,#463,.F.);
#806=ORIENTED_EDGE('',*,*,#466,.F.);
#807=ORIENTED_EDGE('',*,*,#518,.F.);
#808=ORIENTED_EDGE('',*,*,#570,.T.);
#809=ORIENTED_EDGE('',*,*,#573,.F.);
#810=ORIENTED_EDGE('',*,*,#527,.F.);
#811=ORIENTED_EDGE('',*,*,#505,.F.);
#812=ORIENTED_EDGE('',*,*,#522,.T.);
#813=ORIENTED_EDGE('',*,*,#574,.F.);
#814=ORIENTED_EDGE('',*,*,#575,.F.);
#815=ORIENTED_EDGE('',*,*,#510,.F.);
#816=ORIENTED_EDGE('',*,*,#575,.T.);
#817=ORIENTED_EDGE('',*,*,#576,.F.);
#818=ORIENTED_EDGE('',*,*,#571,.F.);
#819=ORIENTED_EDGE('',*,*,#468,.F.);
#820=ORIENTED_EDGE('',*,*,#487,.T.);
#821=ORIENTED_EDGE('',*,*,#562,.T.);
#822=ORIENTED_EDGE('',*,*,#568,.T.);
#823=ORIENTED_EDGE('',*,*,#565,.T.);
#824=ORIENTED_EDGE('',*,*,#563,.T.);
#825=ORIENTED_EDGE('',*,*,#557,.T.);
#826=ORIENTED_EDGE('',*,*,#484,.T.);
#827=ORIENTED_EDGE('',*,*,#449,.F.);
#828=ORIENTED_EDGE('',*,*,#572,.T.);
#829=ORIENTED_EDGE('',*,*,#576,.T.);
#830=ORIENTED_EDGE('',*,*,#574,.T.);
#831=ORIENTED_EDGE('',*,*,#521,.T.);
#832=ORIENTED_EDGE('',*,*,#524,.T.);
#833=ORIENTED_EDGE('',*,*,#526,.T.);
#834=ORIENTED_EDGE('',*,*,#528,.T.);
#835=ORIENTED_EDGE('',*,*,#573,.T.);
#836=ORIENTED_EDGE('',*,*,#569,.T.);
#837=ORIENTED_EDGE('',*,*,#556,.T.);
#838=ORIENTED_EDGE('',*,*,#551,.T.);
#839=ORIENTED_EDGE('',*,*,#548,.T.);
#840=ORIENTED_EDGE('',*,*,#545,.T.);
#841=PLANE('',#926);
#842=PLANE('',#948);
#843=PLANE('',#951);
#844=PLANE('',#954);
#845=PLANE('',#959);
#846=PLANE('',#964);
#847=PLANE('',#969);
#848=PLANE('',#974);
#849=PLANE('',#981);
#850=PLANE('',#984);
#851=PLANE('',#989);
#852=PLANE('',#998);
#853=PLANE('',#1004);
#854=PLANE('',#1008);
#855=PLANE('',#1012);
#856=PLANE('',#1018);
#857=PLANE('',#1019);
#858=PLANE('',#1020);
#859=PLANE('',#1021);
#860=PLANE('',#1022);
#861=PLANE('',#1025);
#862=PLANE('',#1028);
#863=ADVANCED_FACE('',(#110),#841,.F.);
#864=ADVANCED_FACE('',(#111),#106,.T.);
#865=ADVANCED_FACE('',(#112),#27,.T.);
#866=ADVANCED_FACE('',(#113),#107,.T.);
#867=ADVANCED_FACE('',(#114),#28,.T.);
#868=ADVANCED_FACE('',(#115),#108,.T.);
#869=ADVANCED_FACE('',(#116),#29,.T.);
#870=ADVANCED_FACE('',(#117),#109,.T.);
#871=ADVANCED_FACE('',(#118),#842,.F.);
#872=ADVANCED_FACE('',(#119),#30,.F.);
#873=ADVANCED_FACE('',(#120),#843,.F.);
#874=ADVANCED_FACE('',(#121),#31,.F.);
#875=ADVANCED_FACE('',(#122),#844,.F.);
#876=ADVANCED_FACE('',(#123),#32,.F.);
#877=ADVANCED_FACE('',(#124),#33,.F.);
#878=ADVANCED_FACE('',(#125),#845,.T.);
#879=ADVANCED_FACE('',(#126),#23,.T.);
#880=ADVANCED_FACE('',(#127),#846,.T.);
#881=ADVANCED_FACE('',(#128),#24,.T.);
#882=ADVANCED_FACE('',(#129),#847,.T.);
#883=ADVANCED_FACE('',(#130),#25,.T.);
#884=ADVANCED_FACE('',(#131),#848,.T.);
#885=ADVANCED_FACE('',(#132),#26,.T.);
#886=ADVANCED_FACE('',(#133),#34,.T.);
#887=ADVANCED_FACE('',(#134),#849,.T.);
#888=ADVANCED_FACE('',(#135),#35,.T.);
#889=ADVANCED_FACE('',(#136),#850,.T.);
#890=ADVANCED_FACE('',(#137),#36,.F.);
#891=ADVANCED_FACE('',(#138),#851,.F.);
#892=ADVANCED_FACE('',(#139),#37,.F.);
#893=ADVANCED_FACE('',(#140,#15),#852,.F.);
#894=ADVANCED_FACE('',(#141),#38,.F.);
#895=ADVANCED_FACE('',(#142),#39,.F.);
#896=ADVANCED_FACE('',(#143,#16),#853,.F.);
#897=ADVANCED_FACE('',(#144),#40,.F.);
#898=ADVANCED_FACE('',(#145,#17),#854,.F.);
#899=ADVANCED_FACE('',(#146),#41,.F.);
#900=ADVANCED_FACE('',(#147,#18),#855,.F.);
#901=ADVANCED_FACE('',(#148),#42,.F.);
#902=ADVANCED_FACE('',(#149),#43,.F.);
#903=ADVANCED_FACE('',(#150),#856,.F.);
#904=ADVANCED_FACE('',(#151),#857,.F.);
#905=ADVANCED_FACE('',(#152),#858,.F.);
#906=ADVANCED_FACE('',(#153),#859,.F.);
#907=ADVANCED_FACE('',(#154),#860,.T.);
#908=ADVANCED_FACE('',(#155),#44,.T.);
#909=ADVANCED_FACE('',(#156),#861,.T.);
#910=ADVANCED_FACE('',(#157),#45,.T.);
#911=ADVANCED_FACE('',(#158,#19,#20,#21,#22),#862,.T.);
#912=CLOSED_SHELL('',(#863,#864,#865,#866,#867,#868,#869,#870,#871,#872,
#873,#874,#875,#876,#877,#878,#879,#880,#881,#882,#883,#884,#885,#886,#887,
#888,#889,#890,#891,#892,#893,#894,#895,#896,#897,#898,#899,#900,#901,#902,
#903,#904,#905,#906,#907,#908,#909,#910,#911));
#913=DERIVED_UNIT_ELEMENT(#915,1.);
#914=DERIVED_UNIT_ELEMENT(#1635,-3.);
#915=(
MASS_UNIT()
NAMED_UNIT(*)
SI_UNIT(.KILO.,.GRAM.)
);
#916=DERIVED_UNIT((#913,#914));
#917=MEASURE_REPRESENTATION_ITEM('density measure',
POSITIVE_RATIO_MEASURE(7850.),#916);
#918=PROPERTY_DEFINITION_REPRESENTATION(#923,#920);
#919=PROPERTY_DEFINITION_REPRESENTATION(#924,#921);
#920=REPRESENTATION('material name',(#922),#1632);
#921=REPRESENTATION('density',(#917),#1632);
#922=DESCRIPTIVE_REPRESENTATION_ITEM('Steel','Steel');
#923=PROPERTY_DEFINITION('material property','material name',#1642);
#924=PROPERTY_DEFINITION('material property','density of part',#1642);
#925=AXIS2_PLACEMENT_3D('',#1309,#1029,#1030);
#926=AXIS2_PLACEMENT_3D('',#1310,#1031,#1032);
#927=AXIS2_PLACEMENT_3D('',#1319,#1037,#1038);
#928=AXIS2_PLACEMENT_3D('',#1333,#1039,#1040);
#929=AXIS2_PLACEMENT_3D('',#1335,#1041,#1042);
#930=AXIS2_PLACEMENT_3D('',#1336,#1043,#1044);
#931=AXIS2_PLACEMENT_3D('',#1337,#1045,#1046);
#932=AXIS2_PLACEMENT_3D('',#1340,#1047,#1048);
#933=AXIS2_PLACEMENT_3D('',#1343,#1051,#1052);
#934=AXIS2_PLACEMENT_3D('',#1346,#1053,#1054);
#935=AXIS2_PLACEMENT_3D('',#1347,#1055,#1056);
#936=AXIS2_PLACEMENT_3D('',#1348,#1057,#1058);
#937=AXIS2_PLACEMENT_3D('',#1349,#1059,#1060);
#938=AXIS2_PLACEMENT_3D('',#1352,#1061,#1062);
#939=AXIS2_PLACEMENT_3D('',#1355,#1065,#1066);
#940=AXIS2_PLACEMENT_3D('',#1358,#1067,#1068);
#941=AXIS2_PLACEMENT_3D('',#1359,#1069,#1070);
#942=AXIS2_PLACEMENT_3D('',#1360,#1071,#1072);
#943=AXIS2_PLACEMENT_3D('',#1361,#1073,#1074);
#944=AXIS2_PLACEMENT_3D('',#1364,#1075,#1076);
#945=AXIS2_PLACEMENT_3D('',#1367,#1079,#1080);
#946=AXIS2_PLACEMENT_3D('',#1380,#1081,#1082);
#947=AXIS2_PLACEMENT_3D('',#1381,#1083,#1084);
#948=AXIS2_PLACEMENT_3D('',#1382,#1085,#1086);
#949=AXIS2_PLACEMENT_3D('',#1390,#1091,#1092);
#950=AXIS2_PLACEMENT_3D('',#1392,#1093,#1094);
#951=AXIS2_PLACEMENT_3D('',#1394,#1096,#1097);
#952=AXIS2_PLACEMENT_3D('',#1398,#1100,#1101);
#953=AXIS2_PLACEMENT_3D('',#1400,#1102,#1103);
#954=AXIS2_PLACEMENT_3D('',#1402,#1105,#1106);
#955=AXIS2_PLACEMENT_3D('',#1408,#1110,#1111);
#956=AXIS2_PLACEMENT_3D('',#1411,#1113,#1114);
#957=AXIS2_PLACEMENT_3D('',#1412,#1115,#1116);
#958=AXIS2_PLACEMENT_3D('',#1414,#1117,#1118);
#959=AXIS2_PLACEMENT_3D('',#1416,#1120,#1121);
#960=AXIS2_PLACEMENT_3D('',#1425,#1126,#1127);
#961=AXIS2_PLACEMENT_3D('',#1438,#1128,#1129);
#962=AXIS2_PLACEMENT_3D('',#1440,#1130,#1131);
#963=AXIS2_PLACEMENT_3D('',#1443,#1133,#1134);
#964=AXIS2_PLACEMENT_3D('',#1444,#1135,#1136);
#965=AXIS2_PLACEMENT_3D('',#1450,#1140,#1141);
#966=AXIS2_PLACEMENT_3D('',#1463,#1142,#1143);
#967=AXIS2_PLACEMENT_3D('',#1465,#1144,#1145);
#968=AXIS2_PLACEMENT_3D('',#1468,#1147,#1148);
#969=AXIS2_PLACEMENT_3D('',#1469,#1149,#1150);
#970=AXIS2_PLACEMENT_3D('',#1475,#1154,#1155);
#971=AXIS2_PLACEMENT_3D('',#1488,#1156,#1157);
#972=AXIS2_PLACEMENT_3D('',#1490,#1158,#1159);
#973=AXIS2_PLACEMENT_3D('',#1493,#1161,#1162);
#974=AXIS2_PLACEMENT_3D('',#1494,#1163,#1164);
#975=AXIS2_PLACEMENT_3D('',#1500,#1168,#1169);
#976=AXIS2_PLACEMENT_3D('',#1513,#1170,#1171);
#977=AXIS2_PLACEMENT_3D('',#1514,#1172,#1173);
#978=AXIS2_PLACEMENT_3D('',#1515,#1174,#1175);
#979=AXIS2_PLACEMENT_3D('',#1516,#1176,#1177);
#980=AXIS2_PLACEMENT_3D('',#1520,#1179,#1180);
#981=AXIS2_PLACEMENT_3D('',#1522,#1182,#1183);
#982=AXIS2_PLACEMENT_3D('',#1526,#1186,#1187);
#983=AXIS2_PLACEMENT_3D('',#1529,#1189,#1190);
#984=AXIS2_PLACEMENT_3D('',#1530,#1191,#1192);
#985=AXIS2_PLACEMENT_3D('',#1534,#1195,#1196);
#986=AXIS2_PLACEMENT_3D('',#1536,#1197,#1198);
#987=AXIS2_PLACEMENT_3D('',#1539,#1200,#1201);
#988=AXIS2_PLACEMENT_3D('',#1540,#1202,#1203);
#989=AXIS2_PLACEMENT_3D('',#1541,#1204,#1205);
#990=AXIS2_PLACEMENT_3D('',#1543,#1206,#1207);
#991=AXIS2_PLACEMENT_3D('',#1544,#1208,#1209);
#992=AXIS2_PLACEMENT_3D('',#1546,#1210,#1211);
#993=AXIS2_PLACEMENT_3D('',#1547,#1212,#1213);
#994=AXIS2_PLACEMENT_3D('',#1549,#1214,#1215);
#995=AXIS2_PLACEMENT_3D('',#1550,#1216,#1217);
#996=AXIS2_PLACEMENT_3D('',#1551,#1218,#1219);
#997=AXIS2_PLACEMENT_3D('',#1554,#1221,#1222);
#998=AXIS2_PLACEMENT_3D('',#1555,#1223,#1224);
#999=AXIS2_PLACEMENT_3D('',#1557,#1225,#1226);
#1000=AXIS2_PLACEMENT_3D('',#1559,#1227,#1228);
#1001=AXIS2_PLACEMENT_3D('',#1560,#1229,#1230);
#1002=AXIS2_PLACEMENT_3D('',#1562,#1232,#1233);
#1003=AXIS2_PLACEMENT_3D('',#1565,#1235,#1236);
#1004=AXIS2_PLACEMENT_3D('',#1566,#1237,#1238);
#1005=AXIS2_PLACEMENT_3D('',#1568,#1239,#1240);
#1006=AXIS2_PLACEMENT_3D('',#1569,#1241,#1242);
#1007=AXIS2_PLACEMENT_3D('',#1572,#1244,#1245);
#1008=AXIS2_PLACEMENT_3D('',#1573,#1246,#1247);
#1009=AXIS2_PLACEMENT_3D('',#1575,#1248,#1249);
#1010=AXIS2_PLACEMENT_3D('',#1576,#1250,#1251);
#1011=AXIS2_PLACEMENT_3D('',#1579,#1253,#1254);
#1012=AXIS2_PLACEMENT_3D('',#1580,#1255,#1256);
#1013=AXIS2_PLACEMENT_3D('',#1582,#1257,#1258);
#1014=AXIS2_PLACEMENT_3D('',#1584,#1259,#1260);
#1015=AXIS2_PLACEMENT_3D('',#1585,#1261,#1262);
#1016=AXIS2_PLACEMENT_3D('',#1587,#1264,#1265);
#1017=AXIS2_PLACEMENT_3D('',#1590,#1267,#1268);
#1018=AXIS2_PLACEMENT_3D('',#1591,#1269,#1270);
#1019=AXIS2_PLACEMENT_3D('',#1602,#1277,#1278);
#1020=AXIS2_PLACEMENT_3D('',#1606,#1281,#1282);
#1021=AXIS2_PLACEMENT_3D('',#1612,#1286,#1287);
#1022=AXIS2_PLACEMENT_3D('',#1614,#1289,#1290);
#1023=AXIS2_PLACEMENT_3D('',#1621,#1295,#1296);
#1024=AXIS2_PLACEMENT_3D('',#1622,#1297,#1298);
#1025=AXIS2_PLACEMENT_3D('',#1623,#1299,#1300);
#1026=AXIS2_PLACEMENT_3D('',#1627,#1303,#1304);
#1027=AXIS2_PLACEMENT_3D('',#1628,#1305,#1306);
#1028=AXIS2_PLACEMENT_3D('',#1629,#1307,#1308);
#1029=DIRECTION('axis',(0.,0.,1.));
#1030=DIRECTION('refdir',(1.,0.,0.));
#1031=DIRECTION('center_axis',(0.,-1.,0.));
#1032=DIRECTION('ref_axis',(0.,0.,-1.));
#1033=DIRECTION('',(0.,0.,-1.));
#1034=DIRECTION('',(-1.,0.,0.));
#1035=DIRECTION('',(0.,0.,1.));
#1036=DIRECTION('',(1.,0.,0.));
#1037=DIRECTION('center_axis',(0.,0.,1.));
#1038=DIRECTION('ref_axis',(1.,0.,0.));
#1039=DIRECTION('center_axis',(0.,0.,1.));
#1040=DIRECTION('ref_axis',(-0.982544210230978,0.186029231416958,0.));
#1041=DIRECTION('center_axis',(0.,1.,0.));
#1042=DIRECTION('ref_axis',(1.,0.,0.));
#1043=DIRECTION('center_axis',(0.,0.,-1.));
#1044=DIRECTION('ref_axis',(-0.982544210230978,0.186029231416958,0.));
#1045=DIRECTION('center_axis',(0.,-1.,0.));
#1046=DIRECTION('ref_axis',(0.707106781186543,0.,-0.707106781186552));
#1047=DIRECTION('center_axis',(0.,1.,0.));
#1048=DIRECTION('ref_axis',(1.,0.,0.));
#1049=DIRECTION('',(0.,1.,0.));
#1050=DIRECTION('',(0.,-1.,0.));
#1051=DIRECTION('center_axis',(0.,0.,1.));
#1052=DIRECTION('ref_axis',(1.,0.,0.));
#1053=DIRECTION('center_axis',(-1.,4.44089209850063E-15,0.));
#1054=DIRECTION('ref_axis',(4.44089209850063E-15,1.,0.));
#1055=DIRECTION('center_axis',(0.,0.,-1.));
#1056=DIRECTION('ref_axis',(-0.70710678118655,-0.707106781186545,0.));
#1057=DIRECTION('center_axis',(0.,0.,1.));
#1058=DIRECTION('ref_axis',(-0.70710678118655,-0.707106781186545,0.));
#1059=DIRECTION('center_axis',(1.,0.,0.));
#1060=DIRECTION('ref_axis',(0.,0.707106781186542,-0.707106781186553));
#1061=DIRECTION('center_axis',(-1.,0.,0.));
#1062=DIRECTION('ref_axis',(0.,1.,0.));
#1063=DIRECTION('',(-1.,0.,0.));
#1064=DIRECTION('',(1.,0.,0.));
#1065=DIRECTION('center_axis',(0.,0.,1.));
#1066=DIRECTION('ref_axis',(1.,0.,0.));
#1067=DIRECTION('center_axis',(-6.66133814775093E-15,-1.,0.));
#1068=DIRECTION('ref_axis',(-1.,6.66133814775093E-15,0.));
#1069=DIRECTION('center_axis',(0.,0.,-1.));
#1070=DIRECTION('ref_axis',(0.707106781186548,-0.707106781186548,0.));
#1071=DIRECTION('center_axis',(0.,0.,1.));
#1072=DIRECTION('ref_axis',(0.707106781186548,-0.707106781186548,0.));
#1073=DIRECTION('center_axis',(0.,1.,0.));
#1074=DIRECTION('ref_axis',(-0.707106781186544,0.,-0.707106781186551));
#1075=DIRECTION('center_axis',(0.,-1.,0.));
#1076=DIRECTION('ref_axis',(-1.,0.,0.));
#1077=DIRECTION('',(0.,-1.,0.));
#1078=DIRECTION('',(0.,1.,0.));
#1079=DIRECTION('center_axis',(0.,0.,1.));
#1080=DIRECTION('ref_axis',(1.,0.,0.));
#1081=DIRECTION('center_axis',(0.,0.,-1.));
#1082=DIRECTION('ref_axis',(0.982544210230977,0.186029231416961,0.));
#1083=DIRECTION('center_axis',(0.,0.,1.));
#1084=DIRECTION('ref_axis',(0.982544210230977,0.186029231416961,0.));
#1085=DIRECTION('center_axis',(1.,0.,0.));
#1086=DIRECTION('ref_axis',(0.,1.,0.));
#1087=DIRECTION('',(0.,1.,0.));
#1088=DIRECTION('',(0.,-1.,0.));
#1089=DIRECTION('',(0.,0.,1.));
#1090=DIRECTION('',(0.,0.,1.));
#1091=DIRECTION('center_axis',(0.,0.,1.));
#1092=DIRECTION('ref_axis',(1.,-6.6613381477509E-15,0.));
#1093=DIRECTION('center_axis',(0.,0.,1.));
#1094=DIRECTION('ref_axis',(1.,-6.6613381477509E-15,0.));
#1095=DIRECTION('',(0.,0.,1.));
#1096=DIRECTION('center_axis',(0.,-1.,0.));
#1097=DIRECTION('ref_axis',(1.,0.,0.));
#1098=DIRECTION('',(1.,0.,0.));
#1099=DIRECTION('',(0.,0.,1.));
#1100=DIRECTION('center_axis',(0.,0.,1.));
#1101=DIRECTION('ref_axis',(-4.44089209850063E-15,-1.,0.));
#1102=DIRECTION('center_axis',(0.,0.,1.));
#1103=DIRECTION('ref_axis',(-4.44089209850063E-15,-1.,0.));
#1104=DIRECTION('',(0.,0.,1.));
#1105=DIRECTION('center_axis',(-1.,0.,0.));
#1106=DIRECTION('ref_axis',(0.,-1.,0.));
#1107=DIRECTION('',(0.,-1.,0.));
#1108=DIRECTION('',(0.,0.,1.));
#1109=DIRECTION('',(0.,1.,0.));
#1110=DIRECTION('center_axis',(0.,0.,1.));
#1111=DIRECTION('ref_axis',(-1.,0.,0.));
#1112=DIRECTION('',(0.,0.,-1.));
#1113=DIRECTION('center_axis',(0.,0.,-1.));
#1114=DIRECTION('ref_axis',(-1.,0.,0.));
#1115=DIRECTION('center_axis',(0.,0.,1.));
#1116=DIRECTION('ref_axis',(4.4408920985006E-15,1.,0.));
#1117=DIRECTION('center_axis',(0.,0.,-1.));
#1118=DIRECTION('ref_axis',(4.4408920985006E-15,1.,0.));
#1119=DIRECTION('',(0.,0.,1.));
#1120=DIRECTION('center_axis',(0.707106781186543,-0.707106781186553,-1.1377481584665E-16));
#1121=DIRECTION('ref_axis',(-1.60901887626834E-16,0.,-1.));
#1122=DIRECTION('',(-0.707106781186552,-0.707106781186542,0.));
#1123=DIRECTION('',(-1.60901887626834E-16,0.,-1.));
#1124=DIRECTION('',(0.707106781186552,0.707106781186542,2.51214793389402E-14));
#1125=DIRECTION('',(1.60901887626834E-16,0.,1.));
#1126=DIRECTION('center_axis',(0.,1.,0.));
#1127=DIRECTION('ref_axis',(1.48029736616687E-15,0.,1.));
#1128=DIRECTION('center_axis',(0.,1.,0.));
#1129=DIRECTION('ref_axis',(1.48029736616687E-15,0.,1.));
#1130=DIRECTION('center_axis',(0.,-1.,0.));
#1131=DIRECTION('ref_axis',(1.48029736616687E-15,0.,1.));
#1132=DIRECTION('',(0.,-0.707106781186547,-0.707106781186548));
#1133=DIRECTION('center_axis',(0.,1.,0.));
#1134=DIRECTION('ref_axis',(1.48029736616687E-15,0.,1.));
#1135=DIRECTION('center_axis',(3.81090402593148E-17,-0.707106781186549,
0.707106781186546));
#1136=DIRECTION('ref_axis',(1.,0.,-5.38943215837455E-17));
#1137=DIRECTION('',(-7.85046229341885E-16,-0.707106781186546,-0.707106781186549));
#1138=DIRECTION('',(1.,0.,-5.38943215837455E-17));
#1139=DIRECTION('',(-1.,0.,5.38943215837455E-17));
#1140=DIRECTION('center_axis',(0.,1.,0.));
#1141=DIRECTION('ref_axis',(-1.,0.,1.29526019539601E-15));
#1142=DIRECTION('center_axis',(0.,1.,0.));
#1143=DIRECTION('ref_axis',(-1.,0.,1.29526019539601E-15));
#1144=DIRECTION('center_axis',(0.,-1.,0.));
#1145=DIRECTION('ref_axis',(-1.,0.,1.29526019539601E-15));
#1146=DIRECTION('',(0.707106781186547,-0.707106781186548,-1.57009245868378E-15));
#1147=DIRECTION('center_axis',(0.,1.,0.));
#1148=DIRECTION('ref_axis',(-1.,0.,1.29526019539601E-15));
#1149=DIRECTION('center_axis',(-0.707106781186549,-0.707106781186546,0.));
#1150=DIRECTION('ref_axis',(0.,0.,1.));
#1151=DIRECTION('',(0.,0.,-1.));
#1152=DIRECTION('',(0.707106781186543,-0.707106781186552,0.));
#1153=DIRECTION('',(0.,0.,1.));
#1154=DIRECTION('center_axis',(0.,1.,0.));
#1155=DIRECTION('ref_axis',(-9.25185853854298E-17,0.,-1.));
#1156=DIRECTION('center_axis',(0.,1.,0.));
#1157=DIRECTION('ref_axis',(-9.25185853854298E-17,0.,-1.));
#1158=DIRECTION('center_axis',(0.,-1.,0.));
#1159=DIRECTION('ref_axis',(-9.25185853854298E-17,0.,-1.));
#1160=DIRECTION('',(0.,-0.707106781186542,0.707106781186552));
#1161=DIRECTION('center_axis',(0.,1.,0.));
#1162=DIRECTION('ref_axis',(-9.25185853854298E-17,0.,-1.));
#1163=DIRECTION('center_axis',(0.,-0.707106781186553,-0.707106781186543));
#1164=DIRECTION('ref_axis',(-1.,0.,0.));
#1165=DIRECTION('',(0.,-0.707106781186542,0.707106781186552));
#1166=DIRECTION('',(-1.,0.,0.));
#1167=DIRECTION('',(1.,0.,0.));
#1168=DIRECTION('center_axis',(0.,1.,0.));
#1169=DIRECTION('ref_axis',(1.,0.,8.88178419700134E-15));
#1170=DIRECTION('center_axis',(0.,1.,0.));
#1171=DIRECTION('ref_axis',(1.,0.,8.88178419700134E-15));
#1172=DIRECTION('center_axis',(0.,-1.,0.));
#1173=DIRECTION('ref_axis',(1.,0.,8.88178419700134E-15));
#1174=DIRECTION('center_axis',(0.,1.,0.));
#1175=DIRECTION('ref_axis',(1.,0.,8.88178419700134E-15));
#1176=DIRECTION('center_axis',(0.,1.,0.));
#1177=DIRECTION('ref_axis',(-1.,0.,1.29526019539601E-15));
#1178=DIRECTION('',(0.,1.,0.));
#1179=DIRECTION('center_axis',(0.,1.,0.));
#1180=DIRECTION('ref_axis',(-1.,0.,1.29526019539601E-15));
#1181=DIRECTION('',(0.,1.,0.));
#1182=DIRECTION('center_axis',(5.38943215837455E-17,0.,1.));
#1183=DIRECTION('ref_axis',(1.,0.,-5.38943215837455E-17));
#1184=DIRECTION('',(0.,1.,0.));
#1185=DIRECTION('',(1.,0.,-5.38943215837455E-17));
#1186=DIRECTION('center_axis',(0.,1.,0.));
#1187=DIRECTION('ref_axis',(1.48029736616687E-15,0.,1.));
#1188=DIRECTION('',(0.,1.,0.));
#1189=DIRECTION('center_axis',(0.,1.,0.));
#1190=DIRECTION('ref_axis',(1.48029736616687E-15,0.,1.));
#1191=DIRECTION('center_axis',(1.,0.,-1.60901887626834E-16));
#1192=DIRECTION('ref_axis',(-1.60901887626834E-16,0.,-1.));
#1193=DIRECTION('',(0.,1.,0.));
#1194=DIRECTION('',(-1.60901887626834E-16,0.,-1.));
#1195=DIRECTION('center_axis',(0.,1.,0.));
#1196=DIRECTION('ref_axis',(0.,0.,-1.));
#1197=DIRECTION('center_axis',(0.,1.,0.));
#1198=DIRECTION('ref_axis',(0.,0.,-1.));
#1199=DIRECTION('',(0.,1.,0.));
#1200=DIRECTION('center_axis',(0.,1.,0.));
#1201=DIRECTION('ref_axis',(0.,0.,-1.));
#1202=DIRECTION('center_axis',(0.,1.,0.));
#1203=DIRECTION('ref_axis',(0.,0.,-1.));
#1204=DIRECTION('center_axis',(0.,1.,0.));
#1205=DIRECTION('ref_axis',(1.,0.,0.));
#1206=DIRECTION('center_axis',(0.,1.,0.));
#1207=DIRECTION('ref_axis',(0.,0.,-1.));
#1208=DIRECTION('center_axis',(0.,1.,0.));
#1209=DIRECTION('ref_axis',(0.,0.,-1.));
#1210=DIRECTION('center_axis',(0.,1.,0.));
#1211=DIRECTION('ref_axis',(0.,0.,-1.));
#1212=DIRECTION('center_axis',(0.,1.,0.));
#1213=DIRECTION('ref_axis',(0.,0.,-1.));
#1214=DIRECTION('center_axis',(0.,1.,0.));
#1215=DIRECTION('ref_axis',(0.,0.,-1.));
#1216=DIRECTION('center_axis',(0.,1.,0.));
#1217=DIRECTION('ref_axis',(0.,0.,-1.));
#1218=DIRECTION('center_axis',(0.,1.,0.));
#1219=DIRECTION('ref_axis',(0.,0.,-1.));
#1220=DIRECTION('',(0.,1.,0.));
#1221=DIRECTION('center_axis',(0.,1.,0.));
#1222=DIRECTION('ref_axis',(0.,0.,-1.));
#1223=DIRECTION('center_axis',(0.,1.,0.));
#1224=DIRECTION('ref_axis',(0.,0.,-1.));
#1225=DIRECTION('center_axis',(0.,1.,0.));
#1226=DIRECTION('ref_axis',(0.,0.,-1.));
#1227=DIRECTION('center_axis',(0.,1.,0.));
#1228=DIRECTION('ref_axis',(0.,0.,-1.));
#1229=DIRECTION('center_axis',(0.,1.,0.));
#1230=DIRECTION('ref_axis',(0.,0.,-1.));
#1231=DIRECTION('',(0.,1.,0.));
#1232=DIRECTION('center_axis',(0.,1.,0.));
#1233=DIRECTION('ref_axis',(0.,0.,-1.));
#1234=DIRECTION('',(0.,1.,0.));
#1235=DIRECTION('center_axis',(0.,-1.,0.));
#1236=DIRECTION('ref_axis',(0.,0.,-1.));
#1237=DIRECTION('center_axis',(0.,1.,0.));
#1238=DIRECTION('ref_axis',(0.,0.,-1.));
#1239=DIRECTION('center_axis',(0.,1.,0.));
#1240=DIRECTION('ref_axis',(0.,0.,-1.));
#1241=DIRECTION('center_axis',(0.,1.,0.));
#1242=DIRECTION('ref_axis',(0.,0.,-1.));
#1243=DIRECTION('',(0.,1.,0.));
#1244=DIRECTION('center_axis',(0.,-1.,0.));
#1245=DIRECTION('ref_axis',(0.,0.,-1.));
#1246=DIRECTION('center_axis',(0.,1.,0.));
#1247=DIRECTION('ref_axis',(0.,0.,-1.));
#1248=DIRECTION('center_axis',(0.,1.,0.));
#1249=DIRECTION('ref_axis',(0.,0.,-1.));
#1250=DIRECTION('center_axis',(0.,1.,0.));
#1251=DIRECTION('ref_axis',(0.,0.,-1.));
#1252=DIRECTION('',(0.,1.,0.));
#1253=DIRECTION('center_axis',(0.,-1.,0.));
#1254=DIRECTION('ref_axis',(0.,0.,-1.));
#1255=DIRECTION('center_axis',(0.,1.,0.));
#1256=DIRECTION('ref_axis',(0.,0.,-1.));
#1257=DIRECTION('center_axis',(0.,1.,0.));
#1258=DIRECTION('ref_axis',(0.,0.,-1.));
#1259=DIRECTION('center_axis',(0.,1.,0.));
#1260=DIRECTION('ref_axis',(0.,0.,-1.));
#1261=DIRECTION('center_axis',(0.,1.,0.));
#1262=DIRECTION('ref_axis',(0.,0.,-1.));
#1263=DIRECTION('',(0.,1.,0.));
#1264=DIRECTION('center_axis',(0.,1.,0.));
#1265=DIRECTION('ref_axis',(0.,0.,-1.));
#1266=DIRECTION('',(0.,1.,0.));
#1267=DIRECTION('center_axis',(0.,-1.,0.));
#1268=DIRECTION('ref_axis',(0.,0.,-1.));
#1269=DIRECTION('center_axis',(0.,0.,-1.));
#1270=DIRECTION('ref_axis',(-1.,0.,0.));
#1271=DIRECTION('',(1.,0.,0.));
#1272=DIRECTION('',(0.,1.,0.));
#1273=DIRECTION('',(0.,-1.,0.));
#1274=DIRECTION('',(0.,-1.,0.));
#1275=DIRECTION('',(0.,-1.,0.));
#1276=DIRECTION('',(1.,0.,0.));
#1277=DIRECTION('center_axis',(-1.,0.,0.));
#1278=DIRECTION('ref_axis',(0.,0.,1.));
#1279=DIRECTION('',(0.,0.,-1.));
#1280=DIRECTION('',(0.,-1.,0.));
#1281=DIRECTION('center_axis',(5.38943215837455E-17,0.,1.));
#1282=DIRECTION('ref_axis',(1.,0.,-5.38943215837455E-17));
#1283=DIRECTION('',(-1.,0.,5.38943215837455E-17));
#1284=DIRECTION('',(0.,-1.,0.));
#1285=DIRECTION('',(0.,-1.,0.));
#1286=DIRECTION('center_axis',(1.,0.,-1.60901887626834E-16));
#1287=DIRECTION('ref_axis',(-1.60901887626834E-16,0.,-1.));
#1288=DIRECTION('',(1.60901887626834E-16,0.,1.));
#1289=DIRECTION('center_axis',(0.,0.,-1.));
#1290=DIRECTION('ref_axis',(-1.,0.,0.));
#1291=DIRECTION('',(-1.,0.,0.));
#1292=DIRECTION('',(0.,1.,0.));
#1293=DIRECTION('',(0.,1.,0.));
#1294=DIRECTION('',(-1.,0.,0.));
#1295=DIRECTION('center_axis',(0.,1.,0.));
#1296=DIRECTION('ref_axis',(1.,0.,8.88178419700134E-15));
#1297=DIRECTION('center_axis',(0.,1.,0.));
#1298=DIRECTION('ref_axis',(1.,0.,8.88178419700134E-15));
#1299=DIRECTION('center_axis',(-1.,0.,0.));
#1300=DIRECTION('ref_axis',(0.,0.,1.));
#1301=DIRECTION('',(0.,0.,1.));
#1302=DIRECTION('',(0.,1.,0.));
#1303=DIRECTION('center_axis',(0.,1.,0.));
#1304=DIRECTION('ref_axis',(-9.25185853854298E-17,0.,-1.));
#1305=DIRECTION('center_axis',(0.,1.,0.));
#1306=DIRECTION('ref_axis',(-9.25185853854298E-17,0.,-1.));
#1307=DIRECTION('center_axis',(0.,1.,0.));
#1308=DIRECTION('ref_axis',(0.,0.,1.));
#1309=CARTESIAN_POINT('',(0.,0.,0.));
#1310=CARTESIAN_POINT('Origin',(38.7000018556137,3.00000000000001,-47.7000024577137));
#1311=CARTESIAN_POINT('',(-0.499999988824129,3.00000000000001,5.49999987706542));
#1312=CARTESIAN_POINT('',(-0.499999988824129,3.00000000000001,-100.900004792493));
#1313=CARTESIAN_POINT('',(-0.499999988824129,3.00000000000001,-100.900004792493));
#1314=CARTESIAN_POINT('',(77.9000037000515,3.00000000000001,5.49999987706542));
#1315=CARTESIAN_POINT('',(-0.499999988824129,3.00000000000001,5.49999987706542));
#1316=CARTESIAN_POINT('',(77.9000037000515,3.00000000000001,-100.900004792493));
#1317=CARTESIAN_POINT('',(77.9000037000515,3.00000000000001,5.49999987706542));
#1318=CARTESIAN_POINT('',(77.9000037000515,3.00000000000001,-100.900004792493));
#1319=CARTESIAN_POINT('Origin',(20.221124368404,15.6344361114751,-107.9));
#1320=CARTESIAN_POINT('',(18.2548174128636,16.,-108.9));
#1321=CARTESIAN_POINT('',(19.2903381182872,16.,-107.9));
#1322=CARTESIAN_POINT('Ctrl Pts',(18.2548174128636,16.,-108.9));
#1323=CARTESIAN_POINT('Ctrl Pts',(18.3816359615877,16.,-108.9));
#1324=CARTESIAN_POINT('Ctrl Pts',(18.5309414479452,16.,-108.870549846584));
#1325=CARTESIAN_POINT('Ctrl Pts',(18.7665040744682,16.,-108.774729658897));
#1326=CARTESIAN_POINT('Ctrl Pts',(18.8946117652099,16.,-108.691107842656));
#1327=CARTESIAN_POINT('Ctrl Pts',(19.0761133460596,16.,-108.514667656314));
#1328=CARTESIAN_POINT('Ctrl Pts',(19.1623436875764,16.,-108.390991283476));
#1329=CARTESIAN_POINT('Ctrl Pts',(19.2601626269511,16.,-108.164068758161));
#1330=CARTESIAN_POINT('Ctrl Pts',(19.2903381182872,16.,-108.021466570885));
#1331=CARTESIAN_POINT('Ctrl Pts',(19.2903381182872,16.,-107.9));
#1332=CARTESIAN_POINT('',(19.221124368404,15.6344361114751,-107.9));
#1333=CARTESIAN_POINT('Origin',(20.221124368404,15.6344361114751,-107.9));
#1334=CARTESIAN_POINT('',(18.221124368404,15.6344361114751,-108.9));
#1335=CARTESIAN_POINT('Origin',(18.221124368404,15.6344361114751,-107.9));
#1336=CARTESIAN_POINT('Origin',(20.221124368404,15.6344361114751,-108.9));
#1337=CARTESIAN_POINT('Origin',(18.221124368404,7.81721805573755,-107.9));
#1338=CARTESIAN_POINT('',(19.221124368404,6.50000016391277,-107.9));
#1339=CARTESIAN_POINT('',(18.221124368404,6.50000016391277,-108.9));
#1340=CARTESIAN_POINT('Origin',(18.221124368404,6.50000016391277,-107.9));
#1341=CARTESIAN_POINT('',(18.221124368404,7.81721805573755,-108.9));
#1342=CARTESIAN_POINT('',(19.221124368404,7.81721805573755,-107.9));
#1343=CARTESIAN_POINT('Origin',(20.221124368404,6.50000016391277,-107.9));
#1344=CARTESIAN_POINT('',(20.221124368404,5.50000016391277,-107.9));
#1345=CARTESIAN_POINT('',(20.221124368404,4.50000016391277,-108.9));
#1346=CARTESIAN_POINT('Origin',(20.221124368404,4.50000016391277,-107.9));
#1347=CARTESIAN_POINT('Origin',(20.221124368404,6.50000016391277,-108.9));
#1348=CARTESIAN_POINT('Origin',(20.221124368404,6.50000016391277,-107.9));
#1349=CARTESIAN_POINT('Origin',(50.060562184202,4.50000016391277,-107.9));
#1350=CARTESIAN_POINT('',(36.221124368404,5.50000016391277,-107.9));
#1351=CARTESIAN_POINT('',(36.221124368404,4.50000016391277,-108.9));
#1352=CARTESIAN_POINT('Origin',(36.221124368404,4.50000016391277,-107.9));
#1353=CARTESIAN_POINT('',(50.060562184202,4.50000016391277,-108.9));
#1354=CARTESIAN_POINT('',(50.060562184202,5.50000016391277,-107.9));
#1355=CARTESIAN_POINT('Origin',(36.221124368404,6.50000016391278,-107.9));
#1356=CARTESIAN_POINT('',(37.221124368404,6.50000016391277,-107.9));
#1357=CARTESIAN_POINT('',(38.221124368404,6.50000016391277,-108.9));
#1358=CARTESIAN_POINT('Origin',(38.221124368404,6.50000016391277,-107.9));
#1359=CARTESIAN_POINT('Origin',(36.221124368404,6.50000016391278,-108.9));
#1360=CARTESIAN_POINT('Origin',(36.221124368404,6.50000016391278,-107.9));
#1361=CARTESIAN_POINT('Origin',(38.221124368404,3.25000008195639,-107.9));
#1362=CARTESIAN_POINT('',(37.221124368404,15.6344361114751,-107.9));
#1363=CARTESIAN_POINT('',(38.221124368404,15.6344361114751,-108.9));
#1364=CARTESIAN_POINT('Origin',(38.221124368404,15.6344361114751,-107.9));
#1365=CARTESIAN_POINT('',(38.221124368404,3.25000008195639,-108.9));
#1366=CARTESIAN_POINT('',(37.221124368404,3.25000008195639,-107.9));
#1367=CARTESIAN_POINT('Origin',(36.221124368404,15.6344361114751,-107.9));
#1368=CARTESIAN_POINT('',(37.1519106185208,16.,-107.9));
#1369=CARTESIAN_POINT('',(38.1874313239444,16.,-108.9));
#1370=CARTESIAN_POINT('Ctrl Pts',(37.1519106185208,16.,-107.9));
#1371=CARTESIAN_POINT('Ctrl Pts',(37.1519106185208,16.,-108.021466570885));
#1372=CARTESIAN_POINT('Ctrl Pts',(37.1820861098569,16.,-108.164068758161));
#1373=CARTESIAN_POINT('Ctrl Pts',(37.2799050492316,16.,-108.390991283476));
#1374=CARTESIAN_POINT('Ctrl Pts',(37.3661353907484,16.,-108.514667656314));
#1375=CARTESIAN_POINT('Ctrl Pts',(37.5476369715982,16.,-108.691107842656));
#1376=CARTESIAN_POINT('Ctrl Pts',(37.6757446623398,16.,-108.774729658897));
#1377=CARTESIAN_POINT('Ctrl Pts',(37.9113072888628,16.,-108.870549846584));
#1378=CARTESIAN_POINT('Ctrl Pts',(38.0606127752203,16.,-108.9));
#1379=CARTESIAN_POINT('Ctrl Pts',(38.1874313239444,16.,-108.9));
#1380=CARTESIAN_POINT('Origin',(36.221124368404,15.6344361114751,-108.9));
#1381=CARTESIAN_POINT('Origin',(36.221124368404,15.6344361114751,-107.9));
#1382=CARTESIAN_POINT('Origin',(37.221124368404,6.50000016391277,-108.9));
#1383=CARTESIAN_POINT('',(37.221124368404,6.50000016391277,-100.900004792493));
#1384=CARTESIAN_POINT('',(37.221124368404,8.,-100.9));
#1385=CARTESIAN_POINT('',(37.221124368404,11.2500000819564,-100.900004792493));
#1386=CARTESIAN_POINT('',(37.221124368404,15.6344361114751,-100.9));
#1387=CARTESIAN_POINT('',(37.221124368404,3.25000008195639,-100.9));
#1388=CARTESIAN_POINT('',(37.221124368404,15.6344361114751,-108.9));
#1389=CARTESIAN_POINT('',(37.221124368404,6.50000016391277,-108.9));
#1390=CARTESIAN_POINT('Origin',(36.221124368404,6.50000016391278,-108.9));
#1391=CARTESIAN_POINT('',(36.221124368404,5.50000016391277,-100.900004792493));
#1392=CARTESIAN_POINT('Origin',(36.221124368404,6.50000016391278,-100.900004792493));
#1393=CARTESIAN_POINT('',(36.221124368404,5.50000016391277,-108.9));
#1394=CARTESIAN_POINT('Origin',(20.221124368404,5.50000016391277,-108.9));
#1395=CARTESIAN_POINT('',(20.221124368404,5.50000016391277,-100.900004792493));
#1396=CARTESIAN_POINT('',(9.86056218978994,5.50000016391277,-100.900004792493));
#1397=CARTESIAN_POINT('',(20.221124368404,5.50000016391277,-108.9));
#1398=CARTESIAN_POINT('Origin',(20.221124368404,6.50000016391277,-108.9));
#1399=CARTESIAN_POINT('',(19.221124368404,6.50000016391277,-100.900004792493));
#1400=CARTESIAN_POINT('Origin',(20.221124368404,6.50000016391277,-100.900004792493));
#1401=CARTESIAN_POINT('',(19.221124368404,6.50000016391277,-108.9));
#1402=CARTESIAN_POINT('Origin',(19.221124368404,15.6344361114751,-108.9));
#1403=CARTESIAN_POINT('',(19.221124368404,8.,-100.9));
#1404=CARTESIAN_POINT('',(19.221124368404,15.8172180557376,-100.900004792493));
#1405=CARTESIAN_POINT('',(19.221124368404,15.6344361114751,-100.9));
#1406=CARTESIAN_POINT('',(19.221124368404,15.6344361114751,-108.9));
#1407=CARTESIAN_POINT('',(19.221124368404,7.81721805573755,-100.9));
#1408=CARTESIAN_POINT('Origin',(20.221124368404,15.6344361114751,-108.9));
#1409=CARTESIAN_POINT('',(19.2903381182872,16.,-100.9));
#1410=CARTESIAN_POINT('',(19.2903381182872,16.,-108.9));
#1411=CARTESIAN_POINT('Origin',(20.221124368404,15.6344361114751,-100.9));
#1412=CARTESIAN_POINT('Origin',(36.221124368404,15.6344361114751,-108.9));
#1413=CARTESIAN_POINT('',(37.1519106185208,16.,-100.9));
#1414=CARTESIAN_POINT('Origin',(36.221124368404,15.6344361114751,-100.9));
#1415=CARTESIAN_POINT('',(37.1519106185208,16.,-108.9));
#1416=CARTESIAN_POINT('Origin',(85.65,0.25,-21.35));
#1417=CARTESIAN_POINT('',(85.9,0.5,7.5));
#1418=CARTESIAN_POINT('',(85.4,0.,7.5));
#1419=CARTESIAN_POINT('',(85.9,0.5,7.5));
#1420=CARTESIAN_POINT('',(85.4,0.,-102.9));
#1421=CARTESIAN_POINT('',(85.4,0.,-21.35));
#1422=CARTESIAN_POINT('',(85.9,0.5,-102.9));
#1423=CARTESIAN_POINT('',(85.4,0.,-102.9));
#1424=CARTESIAN_POINT('',(85.9,0.5,-21.35));
#1425=CARTESIAN_POINT('Origin',(79.9,0.25,7.49999999999999));
#1426=CARTESIAN_POINT('',(82.173157494355,0.,12.5082686635061));
#1427=CARTESIAN_POINT('',(84.9082731303299,0.,9.77314765292866));
#1428=CARTESIAN_POINT('Ctrl Pts',(82.173157494355,-5.93275428784068E-15,
12.5082686635061));
#1429=CARTESIAN_POINT('Ctrl Pts',(82.4728295037752,0.0800408031583103,12.460152782973));
#1430=CARTESIAN_POINT('Ctrl Pts',(82.7860974466867,0.147769476484837,12.3653570980966));
#1431=CARTESIAN_POINT('Ctrl Pts',(83.4189501753783,0.248760615467316,12.0611356604788));
#1432=CARTESIAN_POINT('Ctrl Pts',(83.7318001238525,0.274876810337197,11.8351089823602));
#1433=CARTESIAN_POINT('Ctrl Pts',(84.2351093478447,0.274877334817881,11.3318005000957));
#1434=CARTESIAN_POINT('Ctrl Pts',(84.4611365102443,0.248761702044687,11.0189508636029));
#1435=CARTESIAN_POINT('Ctrl Pts',(84.7653606255459,0.147770990491322,10.3860949132108));
#1436=CARTESIAN_POINT('Ctrl Pts',(84.860157319939,0.0800416660663364,10.0728229876181));
#1437=CARTESIAN_POINT('Ctrl Pts',(84.90827313033,4.68375338513738E-16,9.77314765292866));
#1438=CARTESIAN_POINT('Origin',(79.9,0.,7.49999999999999));
#1439=CARTESIAN_POINT('',(79.9,0.5,13.5));
#1440=CARTESIAN_POINT('Origin',(79.9,0.5,7.49999999999999));
#1441=CARTESIAN_POINT('',(79.9,0.,13.));
#1442=CARTESIAN_POINT('',(79.9,0.5,13.5));
#1443=CARTESIAN_POINT('Origin',(79.9,0.,7.49999999999999));
#1444=CARTESIAN_POINT('Origin',(18.1,0.25,13.25));
#1445=CARTESIAN_POINT('',(-2.5,0.5,13.5));
#1446=CARTESIAN_POINT('',(-2.5,0.,13.));
#1447=CARTESIAN_POINT('',(-2.5,0.5,13.5));
#1448=CARTESIAN_POINT('',(18.1,0.,13.));
#1449=CARTESIAN_POINT('',(18.1,0.5,13.5));
#1450=CARTESIAN_POINT('Origin',(-2.49999999999999,0.25,7.49999999999999));
#1451=CARTESIAN_POINT('',(-7.50826690355598,0.,9.77316137191045));
#1452=CARTESIAN_POINT('',(-4.77316115868478,0.,12.5082670003352));
#1453=CARTESIAN_POINT('Ctrl Pts',(-7.50826690355598,9.8879238130678E-16,
9.77316137191045));
#1454=CARTESIAN_POINT('Ctrl Pts',(-7.46015053405388,0.0800399595872087,
10.0728318691501));
#1455=CARTESIAN_POINT('Ctrl Pts',(-7.36535480811248,0.147767847223705,10.3860979272667));
#1456=CARTESIAN_POINT('Ctrl Pts',(-7.06113364713029,0.24875808814224,11.0189486448589));
#1457=CARTESIAN_POINT('Ctrl Pts',(-6.83510682274252,0.274873960449718,11.3317982534429));
#1458=CARTESIAN_POINT('Ctrl Pts',(-6.33179825621833,0.27487397147145,11.8351068349098));
#1459=CARTESIAN_POINT('Ctrl Pts',(-6.01894865446859,0.248758111062254,12.0611336687944));
#1460=CARTESIAN_POINT('Ctrl Pts',(-5.38609786887949,0.147767879274251,12.3653548856095));
#1461=CARTESIAN_POINT('Ctrl Pts',(-5.07283172632276,0.0800399778429874,
12.460150632617));
#1462=CARTESIAN_POINT('Ctrl Pts',(-4.77316115868478,5.3776427755281E-16,
12.5082670003352));
#1463=CARTESIAN_POINT('Origin',(-2.49999999999999,0.,7.49999999999999));
#1464=CARTESIAN_POINT('',(-8.5,0.5,7.5));
#1465=CARTESIAN_POINT('Origin',(-2.49999999999999,0.5,7.49999999999999));
#1466=CARTESIAN_POINT('',(-8.,0.,7.5));
#1467=CARTESIAN_POINT('',(-8.5,0.5,7.5));
#1468=CARTESIAN_POINT('Origin',(-2.49999999999999,0.,7.49999999999999));
#1469=CARTESIAN_POINT('Origin',(-8.25,0.25,-76.55));
#1470=CARTESIAN_POINT('',(-8.5,0.5,-102.9));
#1471=CARTESIAN_POINT('',(-8.5,0.5,-76.55));
#1472=CARTESIAN_POINT('',(-8.,0.,-102.9));
#1473=CARTESIAN_POINT('',(-8.5,0.5,-102.9));
#1474=CARTESIAN_POINT('',(-8.,0.,-76.55));
#1475=CARTESIAN_POINT('Origin',(-2.5,0.25,-102.9));
#1476=CARTESIAN_POINT('',(-4.77317031639383,0.,-107.908262843808));
#1477=CARTESIAN_POINT('',(-7.50826575880895,0.,-105.173163894034));
#1478=CARTESIAN_POINT('Ctrl Pts',(-4.77317031639383,-1.43982048506075E-15,
-107.908262843808));
#1479=CARTESIAN_POINT('Ctrl Pts',(-5.07283767911817,0.0800388432320916,
-107.860146096849));
#1480=CARTESIAN_POINT('Ctrl Pts',(-5.3860999317928,0.147765788016858,-107.765350982119));
#1481=CARTESIAN_POINT('Ctrl Pts',(-6.01894724861257,0.248755698994227,-107.461131700742));
#1482=CARTESIAN_POINT('Ctrl Pts',(-6.33179683084622,0.274871712650349,-107.235105075853));
#1483=CARTESIAN_POINT('Ctrl Pts',(-6.83510544233037,0.2748720446248,-106.731796914443));
#1484=CARTESIAN_POINT('Ctrl Pts',(-7.06113235326407,0.248756389344812,-106.418947538057));
#1485=CARTESIAN_POINT('Ctrl Pts',(-7.36535331632716,0.147766753377169,-105.78609817317));
#1486=CARTESIAN_POINT('Ctrl Pts',(-7.4601490655716,0.0800393930955308,-105.472833377164));
#1487=CARTESIAN_POINT('Ctrl Pts',(-7.50826575880894,2.67147415300428E-15,
-105.173163894034));
#1488=CARTESIAN_POINT('Origin',(-2.5,0.,-102.9));
#1489=CARTESIAN_POINT('',(-2.5,0.5,-108.9));
#1490=CARTESIAN_POINT('Origin',(-2.5,0.5,-102.9));
#1491=CARTESIAN_POINT('',(-2.5,0.,-108.4));
#1492=CARTESIAN_POINT('',(-2.5,0.5,-108.9));
#1493=CARTESIAN_POINT('Origin',(-2.5,0.,-102.9));
#1494=CARTESIAN_POINT('Origin',(59.3,0.25,-108.65));
#1495=CARTESIAN_POINT('',(79.9,0.5,-108.9));
#1496=CARTESIAN_POINT('',(79.9,0.,-108.4));
#1497=CARTESIAN_POINT('',(79.9,0.5,-108.9));
#1498=CARTESIAN_POINT('',(59.3,0.,-108.4));
#1499=CARTESIAN_POINT('',(59.3,0.5,-108.9));
#1500=CARTESIAN_POINT('Origin',(79.9000000000001,0.25,-102.9));
#1501=CARTESIAN_POINT('',(84.9082630817365,0.,-105.173169792188));
#1502=CARTESIAN_POINT('',(82.1731712634459,0.,-107.908262413956));
#1503=CARTESIAN_POINT('Ctrl Pts',(84.9082630817365,4.90926743701436E-15,
-105.173169792188));
#1504=CARTESIAN_POINT('Ctrl Pts',(84.8601461617979,0.0800386826651874,-105.472837221667));
#1505=CARTESIAN_POINT('Ctrl Pts',(84.765350835586,0.147765447927918,-105.786099527611));
#1506=CARTESIAN_POINT('Ctrl Pts',(84.4611311458918,0.248754918621378,-106.418946690195));
#1507=CARTESIAN_POINT('Ctrl Pts',(84.2351043810987,0.274870693350513,-106.731796072165));
#1508=CARTESIAN_POINT('Ctrl Pts',(83.7317960530149,0.27487061730061,-107.235104297145));
#1509=CARTESIAN_POINT('Ctrl Pts',(83.418946623888,0.248754760473416,-107.46113099641));
#1510=CARTESIAN_POINT('Ctrl Pts',(82.7860999304832,0.147765226779983,-107.765350300857));
#1511=CARTESIAN_POINT('Ctrl Pts',(82.4728382071737,0.0800385567005447,-107.860145481712));
#1512=CARTESIAN_POINT('Ctrl Pts',(82.1731712634459,-3.36536354339501E-15,
-107.908262413956));
#1513=CARTESIAN_POINT('Origin',(79.9000000000001,0.,-102.9));
#1514=CARTESIAN_POINT('Origin',(79.9000000000001,0.5,-102.9));
#1515=CARTESIAN_POINT('Origin',(79.9000000000001,0.,-102.9));
#1516=CARTESIAN_POINT('Origin',(-2.49999999999999,0.,7.49999999999999));
#1517=CARTESIAN_POINT('',(-2.5,16.,13.5));
#1518=CARTESIAN_POINT('',(-2.5,0.,13.5));
#1519=CARTESIAN_POINT('',(-8.5,16.,7.5));
#1520=CARTESIAN_POINT('Origin',(-2.49999999999999,16.,7.49999999999999));
#1521=CARTESIAN_POINT('',(-8.5,0.,7.5));
#1522=CARTESIAN_POINT('Origin',(-2.5,0.,13.5));
#1523=CARTESIAN_POINT('',(79.9,16.,13.5));
#1524=CARTESIAN_POINT('',(79.9,0.,13.5));
#1525=CARTESIAN_POINT('',(79.9,16.,13.5));
#1526=CARTESIAN_POINT('Origin',(79.9,0.,7.49999999999999));
#1527=CARTESIAN_POINT('',(85.9,16.,7.5));
#1528=CARTESIAN_POINT('',(85.9,0.,7.5));
#1529=CARTESIAN_POINT('Origin',(79.9,16.,7.49999999999999));
#1530=CARTESIAN_POINT('Origin',(85.9,0.,7.5));
#1531=CARTESIAN_POINT('',(85.9,16.,-102.9));
#1532=CARTESIAN_POINT('',(85.9,0.,-102.9));
#1533=CARTESIAN_POINT('',(85.9,16.,-102.9));
#1534=CARTESIAN_POINT('Origin',(-4.24999981001019,1.5,-104.649997565895));
#1535=CARTESIAN_POINT('',(-4.24999981001019,-1.38777878078145E-15,-101.349997565895));
#1536=CARTESIAN_POINT('Origin',(-4.24999981001019,0.,-104.649997565895));
#1537=CARTESIAN_POINT('',(-4.24999981001019,3.,-101.349997565895));
#1538=CARTESIAN_POINT('',(-4.24999981001019,1.5,-101.349997565895));
#1539=CARTESIAN_POINT('Origin',(-4.24999981001019,3.,-104.649997565895));
#1540=CARTESIAN_POINT('Origin',(-4.24999981001019,0.,-104.649997565895));
#1541=CARTESIAN_POINT('Origin',(38.7,0.,-50.2));
#1542=CARTESIAN_POINT('',(81.6499980799854,-3.33066907387547E-15,-101.349997565895));
#1543=CARTESIAN_POINT('Origin',(81.6499980799854,0.,-104.649997565895));
#1544=CARTESIAN_POINT('Origin',(81.6499980799854,0.,-104.649997565895));
#1545=CARTESIAN_POINT('',(81.6500040800311,-5.82867087928207E-15,12.5500006412156));
#1546=CARTESIAN_POINT('Origin',(81.6500040800311,0.,9.25000064121559));
#1547=CARTESIAN_POINT('Origin',(81.6500040800311,0.,9.25000064121559));
#1548=CARTESIAN_POINT('',(-4.25000012665987,0.,12.5500002011657));
#1549=CARTESIAN_POINT('Origin',(-4.25000012665987,0.,9.25000020116568));
#1550=CARTESIAN_POINT('Origin',(-4.25000012665987,0.,9.25000020116568));
#1551=CARTESIAN_POINT('Origin',(81.6499980799854,1.5,-104.649997565895));
#1552=CARTESIAN_POINT('',(81.6499980799854,3.,-101.349997565895));
#1553=CARTESIAN_POINT('',(81.6499980799854,1.5,-101.349997565895));
#1554=CARTESIAN_POINT('Origin',(81.6499980799854,3.,-104.649997565895));
#1555=CARTESIAN_POINT('Origin',(81.6500040800311,3.,9.25000064121559));
#1556=CARTESIAN_POINT('',(81.6500040800311,3.,12.5500006412156));
#1557=CARTESIAN_POINT('Origin',(81.6500040800311,3.,9.25000064121559));
#1558=CARTESIAN_POINT('',(81.6500040800311,3.,10.9500006412156));
#1559=CARTESIAN_POINT('Origin',(81.6500040800311,3.,9.25000064121559));
#1560=CARTESIAN_POINT('Origin',(81.6500040800311,1.5,9.25000064121559));
#1561=CARTESIAN_POINT('',(81.6500040800311,1.5,12.5500006412156));
#1562=CARTESIAN_POINT('Origin',(81.6500040800311,8.5,9.25000064121559));
#1563=CARTESIAN_POINT('',(81.6500040800311,16.,10.9500006412156));
#1564=CARTESIAN_POINT('',(81.6500040800311,8.5,10.9500006412156));
#1565=CARTESIAN_POINT('Origin',(81.6500040800311,16.,9.25000064121559));
#1566=CARTESIAN_POINT('Origin',(-4.24999981001019,3.,-104.649997565895));
#1567=CARTESIAN_POINT('',(-4.24999981001019,3.,-102.949997565895));
#1568=CARTESIAN_POINT('Origin',(-4.24999981001019,3.,-104.649997565895));
#1569=CARTESIAN_POINT('Origin',(-4.24999981001019,8.5,-104.649997565895));
#1570=CARTESIAN_POINT('',(-4.24999981001019,16.,-102.949997565895));
#1571=CARTESIAN_POINT('',(-4.24999981001019,8.5,-102.949997565895));
#1572=CARTESIAN_POINT('Origin',(-4.24999981001019,16.,-104.649997565895));
#1573=CARTESIAN_POINT('Origin',(81.6499980799854,3.,-104.649997565895));
#1574=CARTESIAN_POINT('',(81.6499980799854,3.,-102.949997565895));
#1575=CARTESIAN_POINT('Origin',(81.6499980799854,3.,-104.649997565895));
#1576=CARTESIAN_POINT('Origin',(81.6499980799854,8.5,-104.649997565895));
#1577=CARTESIAN_POINT('',(81.6499980799854,16.,-102.949997565895));
#1578=CARTESIAN_POINT('',(81.6499980799854,8.5,-102.949997565895));
#1579=CARTESIAN_POINT('Origin',(81.6499980799854,16.,-104.649997565895));
#1580=CARTESIAN_POINT('Origin',(-4.25000012665987,3.,9.25000020116568));
#1581=CARTESIAN_POINT('',(-4.25000012665987,3.,12.5500002011657));
#1582=CARTESIAN_POINT('Origin',(-4.25000012665987,3.,9.25000020116568));
#1583=CARTESIAN_POINT('',(-4.25000012665987,3.,10.9500002011657));
#1584=CARTESIAN_POINT('Origin',(-4.25000012665987,3.,9.25000020116568));
#1585=CARTESIAN_POINT('Origin',(-4.25000012665987,1.5,9.25000020116568));
#1586=CARTESIAN_POINT('',(-4.25000012665987,1.5,12.5500002011657));
#1587=CARTESIAN_POINT('Origin',(-4.25000012665987,8.5,9.25000020116568));
#1588=CARTESIAN_POINT('',(-4.25000012665987,16.,10.9500002011657));
#1589=CARTESIAN_POINT('',(-4.25000012665987,8.5,10.9500002011657));
#1590=CARTESIAN_POINT('Origin',(-4.25000012665987,16.,9.25000020116568));
#1591=CARTESIAN_POINT('Origin',(79.9,0.,-100.9));
#1592=CARTESIAN_POINT('',(-0.500000000000003,16.,-100.9));
#1593=CARTESIAN_POINT('',(59.3,16.,-100.9));
#1594=CARTESIAN_POINT('',(-0.500000000000003,8.,-100.9));
#1595=CARTESIAN_POINT('',(-0.500000000000003,0.,-100.9));
#1596=CARTESIAN_POINT('',(-0.499999988824129,16.,-100.900004792493));
#1597=CARTESIAN_POINT('',(77.9,8.,-100.9));
#1598=CARTESIAN_POINT('',(77.9000037000515,16.,-100.900004792493));
#1599=CARTESIAN_POINT('',(77.9,16.,-100.9));
#1600=CARTESIAN_POINT('',(77.9,0.,-100.9));
#1601=CARTESIAN_POINT('',(59.3,16.,-100.9));
#1602=CARTESIAN_POINT('Origin',(-0.5,0.,-102.9));
#1603=CARTESIAN_POINT('',(-0.500000000000001,16.,5.5));
#1604=CARTESIAN_POINT('',(-0.500000000000003,16.,-76.55));
#1605=CARTESIAN_POINT('',(-0.5,0.,5.50000000000001));
#1606=CARTESIAN_POINT('Origin',(-2.5,0.,5.5));
#1607=CARTESIAN_POINT('',(77.9,16.,5.5));
#1608=CARTESIAN_POINT('',(18.1,16.,5.5));
#1609=CARTESIAN_POINT('',(77.9,8.,5.5));
#1610=CARTESIAN_POINT('',(77.9,0.,5.5));
#1611=CARTESIAN_POINT('',(77.9000037000515,16.,5.49999987706542));
#1612=CARTESIAN_POINT('Origin',(77.9,0.,7.5));
#1613=CARTESIAN_POINT('',(77.9,16.,-21.35));
#1614=CARTESIAN_POINT('Origin',(79.9,0.,-108.9));
#1615=CARTESIAN_POINT('',(79.9,16.,-108.9));
#1616=CARTESIAN_POINT('',(-2.5,16.,-108.9));
#1617=CARTESIAN_POINT('',(79.9,0.,-108.9));
#1618=CARTESIAN_POINT('',(-2.5,16.,-108.9));
#1619=CARTESIAN_POINT('',(-2.5,0.,-108.9));
#1620=CARTESIAN_POINT('',(-2.5,16.,-108.9));
#1621=CARTESIAN_POINT('Origin',(79.9000000000001,0.,-102.9));
#1622=CARTESIAN_POINT('Origin',(79.9000000000001,16.,-102.9));
#1623=CARTESIAN_POINT('Origin',(-8.5,0.,-102.9));
#1624=CARTESIAN_POINT('',(-8.5,16.,-102.9));
#1625=CARTESIAN_POINT('',(-8.5,16.,-102.9));
#1626=CARTESIAN_POINT('',(-8.5,0.,-102.9));
#1627=CARTESIAN_POINT('Origin',(-2.5,0.,-102.9));
#1628=CARTESIAN_POINT('Origin',(-2.5,16.,-102.9));
#1629=CARTESIAN_POINT('Origin',(38.7,16.,-50.2));
#1630=UNCERTAINTY_MEASURE_WITH_UNIT(LENGTH_MEASURE(0.01),#1634,
'DISTANCE_ACCURACY_VALUE',
'Maximum model space distance between geometric entities at asserted c
onnectivities');
#1631=UNCERTAINTY_MEASURE_WITH_UNIT(LENGTH_MEASURE(0.01),#1634,
'DISTANCE_ACCURACY_VALUE',
'Maximum model space distance between geometric entities at asserted c
onnectivities');
#1632=(
GEOMETRIC_REPRESENTATION_CONTEXT(3)
GLOBAL_UNCERTAINTY_ASSIGNED_CONTEXT((#1630))
GLOBAL_UNIT_ASSIGNED_CONTEXT((#1634,#1636,#1637))
REPRESENTATION_CONTEXT('','3D')
);
#1633=(
GEOMETRIC_REPRESENTATION_CONTEXT(3)
GLOBAL_UNCERTAINTY_ASSIGNED_CONTEXT((#1631))
GLOBAL_UNIT_ASSIGNED_CONTEXT((#1634,#1636,#1637))
REPRESENTATION_CONTEXT('','3D')
);
#1634=(
LENGTH_UNIT()
NAMED_UNIT(*)
SI_UNIT(.MILLI.,.METRE.)
);
#1635=(
LENGTH_UNIT()
NAMED_UNIT(*)
SI_UNIT($,.METRE.)
);
#1636=(
NAMED_UNIT(*)
PLANE_ANGLE_UNIT()
SI_UNIT($,.RADIAN.)
);
#1637=(
NAMED_UNIT(*)
SI_UNIT($,.STERADIAN.)
SOLID_ANGLE_UNIT()
);
#1638=SHAPE_DEFINITION_REPRESENTATION(#1639,#1640);
#1639=PRODUCT_DEFINITION_SHAPE('',$,#1642);
#1640=SHAPE_REPRESENTATION('',(#925),#1632);
#1641=PRODUCT_DEFINITION_CONTEXT('part definition',#1646,'design');
#1642=PRODUCT_DEFINITION('2026-07-18-14-32-45-410','Macropad-Bottom',#1643,
#1641);
#1643=PRODUCT_DEFINITION_FORMATION('',$,#1648);
#1644=PRODUCT_RELATED_PRODUCT_CATEGORY('Macropad-Bottom',
'Macropad-Bottom',(#1648));
#1645=APPLICATION_PROTOCOL_DEFINITION('international standard',
'automotive_design',2009,#1646);
#1646=APPLICATION_CONTEXT(
'Core Data for Automotive Mechanical Design Process');
#1647=PRODUCT_CONTEXT('part definition',#1646,'mechanical');
#1648=PRODUCT('2026-07-18-14-32-45-410','Macropad-Bottom',$,(#1647));
#1649=PRESENTATION_STYLE_ASSIGNMENT((#1651));
#1650=PRESENTATION_STYLE_ASSIGNMENT((#1652));
#1651=SURFACE_STYLE_USAGE(.BOTH.,#1653);
#1652=SURFACE_STYLE_USAGE(.BOTH.,#1654);
#1653=SURFACE_SIDE_STYLE('',(#1655));
#1654=SURFACE_SIDE_STYLE('',(#1656));
#1655=SURFACE_STYLE_FILL_AREA(#1657);
#1656=SURFACE_STYLE_FILL_AREA(#1658);
#1657=FILL_AREA_STYLE('Steel - Satin',(#1659));
#1658=FILL_AREA_STYLE('Powder Coat (Dark Grey)',(#1660));
#1659=FILL_AREA_STYLE_COLOUR('Steel - Satin',#1661);
#1660=FILL_AREA_STYLE_COLOUR('Powder Coat (Dark Grey)',#1662);
#1661=COLOUR_RGB('Steel - Satin',0.627450980392157,0.627450980392157,0.627450980392157);
#1662=COLOUR_RGB('Powder Coat (Dark Grey)',0.349019607843137,0.349019607843137,
0.349019607843137);
ENDSEC;
END-ISO-10303-21;
